<svg width="58" height="58" viewBox="0 0 58 58" fill="none" xmlns="http://www.w3.org/2000/svg">
<path d="M28.6875 0C33.8921 0 38.692 1.28247 43.0873 3.84741C47.4825 6.41235 50.9626 9.89246 53.5276 14.2877C56.0925 18.683 57.375 23.4829 57.375 28.6875C57.375 33.8921 56.0925 38.692 53.5276 43.0873C50.9626 47.4825 47.4825 50.9626 43.0873 53.5276C38.692 56.0925 33.8921 57.375 28.6875 57.375C23.4829 57.375 18.683 56.0925 14.2877 53.5276C9.89246 50.9626 6.41235 47.4825 3.84741 43.0873C1.28247 38.692 0 33.8921 0 28.6875C0 23.4829 1.28247 18.683 3.84741 14.2877C6.41235 9.89246 9.89246 6.41235 14.2877 3.84741C18.683 1.28247 23.4829 0 28.6875 0ZM38.9224 19.4612C38.8726 19.4861 38.7543 19.6044 38.5675 19.816C38.3807 20.0277 38.2126 20.146 38.0632 20.1709C38.113 20.1709 38.1691 20.1086 38.2313 19.9841C38.2936 19.8596 38.3558 19.7227 38.4181 19.5732C38.4803 19.4238 38.5239 19.3367 38.5488 19.3118C38.6982 19.1375 38.9722 18.9507 39.3706 18.7515C39.7192 18.6021 40.3667 18.4526 41.313 18.3032C42.1597 18.104 42.7947 18.241 43.218 18.7141C43.1682 18.6643 43.2865 18.5024 43.5729 18.2285C43.8593 17.9546 44.0398 17.8052 44.1145 17.7803C44.1892 17.7305 44.376 17.6744 44.6748 17.6122C44.9736 17.5499 45.1604 17.4565 45.2351 17.332L45.3098 16.5103C45.011 16.5352 44.7931 16.448 44.6561 16.2488C44.5192 16.0496 44.4382 15.7881 44.4133 15.4644C44.4133 15.5142 44.3386 15.6138 44.1892 15.7632C44.1892 15.5889 44.1332 15.4893 44.0211 15.4644C43.9091 15.4395 43.7659 15.4519 43.5916 15.5017C43.4172 15.5515 43.3052 15.564 43.2554 15.5391C43.0063 15.4644 42.8196 15.371 42.6951 15.2589C42.5706 15.1469 42.4709 14.9414 42.3962 14.6426C42.3215 14.3438 42.2717 14.157 42.2468 14.0823C42.197 13.9578 42.0787 13.827 41.892 13.6901C41.7052 13.5531 41.5869 13.4224 41.5371 13.2979C41.5122 13.248 41.4811 13.1796 41.4437 13.0924C41.4064 13.0052 41.369 12.9243 41.3317 12.8496C41.2943 12.7749 41.2445 12.7064 41.1823 12.6442C41.12 12.5819 41.0515 12.5508 40.9768 12.5508C40.9021 12.5508 40.8149 12.613 40.7153 12.7375C40.6157 12.8621 40.5223 12.9866 40.4352 13.1111C40.348 13.2356 40.292 13.2979 40.2671 13.2979C40.1924 13.248 40.1177 13.2294 40.043 13.2418C39.9683 13.2543 39.9122 13.2667 39.8749 13.2792C39.8375 13.2916 39.7815 13.329 39.7068 13.3912C39.6321 13.4535 39.5698 13.4971 39.52 13.522C39.4453 13.5718 39.3395 13.6091 39.2025 13.634C39.0656 13.6589 38.9597 13.6838 38.885 13.7087C39.2585 13.5842 39.2461 13.4473 38.8477 13.2979C38.5986 13.1982 38.3994 13.1609 38.25 13.1858C38.4741 13.0862 38.5675 12.9368 38.5302 12.7375C38.4928 12.5383 38.387 12.364 38.2126 12.2146H38.3994C38.3745 12.115 38.2687 12.0092 38.0819 11.8971C37.8951 11.785 37.6772 11.6792 37.4282 11.5796C37.1792 11.48 37.0173 11.4053 36.9426 11.3555C36.7434 11.231 36.3201 11.1127 35.6726 11.0006C35.0251 10.8885 34.6143 10.8823 34.4399 10.9819C34.3154 11.1313 34.2594 11.2621 34.2719 11.3741C34.2843 11.4862 34.3341 11.6605 34.4213 11.8971C34.5084 12.1337 34.552 12.2893 34.552 12.364C34.5769 12.5134 34.5084 12.6753 34.3466 12.8496C34.1847 13.0239 34.1038 13.1733 34.1038 13.2979C34.1038 13.4722 34.2781 13.6652 34.6267 13.8768C34.9753 14.0885 35.0999 14.3562 35.0002 14.6799C34.9255 14.8792 34.7263 15.0784 34.4026 15.2776C34.0789 15.4768 33.8796 15.6262 33.8049 15.7258C33.6804 15.925 33.6617 16.1554 33.7489 16.4169C33.8361 16.6783 33.9668 16.8838 34.1411 17.0332C34.1909 17.083 34.2096 17.1328 34.1971 17.1826C34.1847 17.2324 34.1411 17.2885 34.0664 17.3507C33.9917 17.413 33.9232 17.4628 33.861 17.5001C33.7987 17.5375 33.7178 17.5811 33.6182 17.6309L33.5061 17.7056C33.2322 17.8301 32.9769 17.7554 32.7404 17.4814C32.5038 17.2075 32.3357 16.8838 32.2361 16.5103C32.0618 15.8877 31.8625 15.5142 31.6384 15.3896C31.0657 15.1904 30.7046 15.2029 30.5552 15.427C30.4307 15.1033 29.9202 14.7795 29.0237 14.4558C28.4011 14.2317 27.679 14.1819 26.8572 14.3064C27.0066 14.2815 27.0066 14.0947 26.8572 13.7461C26.6829 13.3726 26.4463 13.2231 26.1475 13.2979C26.2222 13.1484 26.272 12.9305 26.2969 12.6442C26.3218 12.3578 26.3342 12.1897 26.3342 12.1399C26.4089 11.8162 26.5583 11.5298 26.7825 11.2808C26.8074 11.2559 26.8945 11.15 27.0439 10.9633C27.1934 10.7765 27.3116 10.6084 27.3988 10.459C27.486 10.3096 27.4922 10.2349 27.4175 10.2349C28.2891 10.3345 28.9116 10.1975 29.2852 9.82397C29.4097 9.69946 29.5529 9.48779 29.7147 9.18896C29.8766 8.89014 30.0073 8.67847 30.1069 8.55396C30.3311 8.40454 30.5054 8.33606 30.6299 8.34851C30.7544 8.36096 30.9349 8.42944 31.1715 8.55396C31.4081 8.67847 31.5886 8.74072 31.7131 8.74072C32.0618 8.76563 32.2548 8.62866 32.2921 8.32983C32.3295 8.03101 32.2361 7.78198 32.012 7.58276C32.3108 7.60767 32.3481 7.396 32.124 6.94775C31.9995 6.77344 31.8999 6.66138 31.8252 6.61157C31.5264 6.51196 31.1902 6.57422 30.8167 6.79834C30.6174 6.89795 30.6423 6.99756 30.8914 7.09717C30.8665 7.07227 30.7482 7.203 30.5365 7.48938C30.3248 7.77576 30.1194 7.99365 29.9202 8.14307C29.7209 8.29248 29.5217 8.23022 29.3225 7.9563C29.2976 7.9314 29.2291 7.76331 29.1171 7.45203C29.005 7.14075 28.8867 6.97266 28.7622 6.94775C28.563 6.94775 28.3638 7.13452 28.1646 7.50806C28.2393 7.30884 28.1023 7.12207 27.7537 6.94775C27.405 6.77344 27.1062 6.67383 26.8572 6.64893C27.3303 6.3501 27.2307 6.01392 26.5583 5.64038C26.384 5.54077 26.1288 5.47852 25.7926 5.45361C25.4564 5.42871 25.2136 5.47852 25.0642 5.60303C24.9397 5.77734 24.8712 5.92053 24.8588 6.03259C24.8463 6.14465 24.9086 6.24426 25.0455 6.33142C25.1825 6.41858 25.3132 6.48706 25.4377 6.53687C25.5623 6.58667 25.7054 6.63647 25.8673 6.68628C26.0292 6.73608 26.135 6.77344 26.1848 6.79834C26.5334 7.04736 26.6331 7.22168 26.4836 7.32129C26.4338 7.34619 26.328 7.38977 26.1661 7.45203C26.0043 7.51428 25.8611 7.57031 25.7366 7.62012C25.6121 7.66992 25.5374 7.71973 25.5125 7.76953C25.4377 7.86914 25.4377 8.04346 25.5125 8.29248C25.5872 8.5415 25.5623 8.71582 25.4377 8.81543C25.3132 8.69092 25.2012 8.47302 25.1016 8.16174C25.002 7.85046 24.9148 7.64502 24.8401 7.54541C25.0144 7.76953 24.7031 7.84424 23.9062 7.76953L23.5327 7.73218C23.4331 7.73218 23.2339 7.75708 22.9351 7.80688C22.6362 7.85669 22.381 7.86914 22.1693 7.84424C21.9576 7.81934 21.7896 7.71973 21.665 7.54541C21.5654 7.34619 21.5654 7.09717 21.665 6.79834C21.6899 6.69873 21.7397 6.67383 21.8145 6.72363C21.7148 6.64893 21.5779 6.53064 21.4036 6.36877C21.2292 6.20691 21.1047 6.10107 21.03 6.05127C19.8845 6.4248 18.7141 6.9353 17.5188 7.58276C17.6682 7.60767 17.8176 7.59521 17.967 7.54541C18.0916 7.49561 18.2534 7.41467 18.4526 7.30261C18.6519 7.19055 18.7764 7.12207 18.8262 7.09717C19.6729 6.74854 20.1958 6.66138 20.395 6.83569L20.5818 6.64893C20.9304 7.04736 21.1794 7.35864 21.3289 7.58276C21.1545 7.48315 20.781 7.4707 20.2083 7.54541C19.7102 7.69482 19.4363 7.84424 19.3865 7.99365C19.5608 8.29248 19.623 8.5166 19.5732 8.66602C19.4736 8.59131 19.3304 8.4668 19.1437 8.29248C18.9569 8.11816 18.7764 7.9812 18.6021 7.88159C18.4277 7.78198 18.241 7.71973 18.0417 7.69482C17.6433 7.69482 17.3694 7.70728 17.22 7.73218C13.5842 9.72437 10.6582 12.4885 8.44189 16.0247C8.61621 16.199 8.76563 16.2986 8.89014 16.3235C8.98975 16.3484 9.052 16.4604 9.0769 16.6597C9.10181 16.8589 9.13293 16.9958 9.17029 17.0706C9.20764 17.1453 9.35083 17.1079 9.59985 16.9585C9.82397 17.1577 9.86133 17.3943 9.71191 17.6682C9.73682 17.6433 10.2847 17.9795 11.3555 18.6768C11.8286 19.1001 12.0901 19.3616 12.1399 19.4612C12.2146 19.7351 12.0901 19.9592 11.7664 20.1335C11.7415 20.0837 11.6294 19.9717 11.4302 19.7974C11.231 19.623 11.1189 19.5732 11.094 19.6479C11.0193 19.7725 11.0255 20.0028 11.1127 20.339C11.1998 20.6752 11.3306 20.8308 11.5049 20.8059C11.3306 20.8059 11.2123 21.0051 11.15 21.4036C11.0878 21.802 11.0566 22.244 11.0566 22.7296C11.0566 23.2152 11.0442 23.5078 11.0193 23.6074L11.094 23.6448C11.0193 23.9436 11.0878 24.3732 11.2994 24.9335C11.5111 25.4938 11.7788 25.7366 12.1025 25.6619C11.7788 25.7366 12.0278 26.272 12.8496 27.2681C12.999 27.4673 13.0986 27.5793 13.1484 27.6042C13.2231 27.6541 13.3726 27.7474 13.5967 27.8844C13.8208 28.0214 14.0076 28.1459 14.157 28.2579C14.3064 28.37 14.4309 28.5007 14.5305 28.6501C14.6301 28.7747 14.7546 29.0548 14.9041 29.4906C15.0535 29.9264 15.2278 30.219 15.427 30.3684C15.3772 30.5178 15.4955 30.7668 15.7819 31.1155C16.0682 31.4641 16.199 31.7505 16.1741 31.9746C16.1492 31.9746 16.118 31.9871 16.0807 32.012C16.0433 32.0369 16.0122 32.0493 15.9873 32.0493C16.062 32.2236 16.255 32.3979 16.5663 32.5723C16.8776 32.7466 17.0706 32.9084 17.1453 33.0579C17.1702 33.1326 17.1951 33.2571 17.22 33.4314C17.2449 33.6057 17.2822 33.7427 17.332 33.8423C17.3818 33.9419 17.4814 33.9668 17.6309 33.917C17.6807 33.4189 17.3818 32.647 16.7344 31.6011C16.3608 30.9785 16.1492 30.6174 16.0994 30.5178C16.0247 30.3933 15.9562 30.2003 15.8939 29.9388C15.8317 29.6774 15.7756 29.4968 15.7258 29.3972C15.7756 29.3972 15.8503 29.4159 15.95 29.4532C16.0496 29.4906 16.1554 29.5342 16.2675 29.584C16.3795 29.6338 16.4729 29.6836 16.5476 29.7334C16.6223 29.7832 16.6472 29.8206 16.6223 29.8455C16.5476 30.0198 16.5725 30.2377 16.697 30.4991C16.8215 30.7606 16.9709 30.991 17.1453 31.1902C17.3196 31.3894 17.5313 31.626 17.7803 31.8999C18.0293 32.1738 18.1787 32.3357 18.2285 32.3855C18.3779 32.5349 18.5522 32.7777 18.7515 33.1139C18.9507 33.4501 18.9507 33.6182 18.7515 33.6182C18.9756 33.6182 19.2246 33.7427 19.4985 33.9917C19.7725 34.2407 19.9841 34.4897 20.1335 34.7388C20.2581 34.938 20.3577 35.2617 20.4324 35.71C20.5071 36.1582 20.5693 36.457 20.6191 36.6064C20.6689 36.7808 20.7748 36.9489 20.9366 37.1107C21.0985 37.2726 21.2542 37.3909 21.4036 37.4656L22.0012 37.7644L22.4868 38.0259C22.6113 38.0757 22.8417 38.2064 23.1779 38.4181C23.514 38.6298 23.7817 38.7729 23.981 38.8477C24.23 38.9473 24.4292 38.9971 24.5786 38.9971C24.728 38.9971 24.9086 38.9659 25.1202 38.9037C25.3319 38.8414 25.5 38.7979 25.6245 38.7729C25.998 38.7231 26.3591 38.9099 26.7078 39.3333C27.0564 39.7566 27.3179 40.0181 27.4922 40.1177C28.3887 40.5908 29.0735 40.7278 29.5466 40.5286C29.4968 40.5535 29.5031 40.6469 29.5653 40.8087C29.6276 40.9706 29.7272 41.1636 29.8641 41.3877C30.0011 41.6118 30.1132 41.7924 30.2003 41.9293C30.2875 42.0663 30.356 42.1721 30.4058 42.2468C30.5303 42.3962 30.7544 42.583 31.0781 42.8071C31.4019 43.0312 31.626 43.218 31.7505 43.3674C31.8999 43.2678 31.9871 43.1558 32.012 43.0312C31.9373 43.2305 32.0244 43.4795 32.2734 43.7783C32.5225 44.0771 32.7466 44.2017 32.9458 44.1519C33.2944 44.0771 33.4688 43.6787 33.4688 42.9565C32.6968 43.3301 32.0867 43.106 31.6384 42.2842C31.6384 42.2593 31.6073 42.1908 31.545 42.0787C31.4828 41.9667 31.433 41.8608 31.3956 41.7612C31.3583 41.6616 31.3271 41.5558 31.3022 41.4437C31.2773 41.3317 31.2773 41.2383 31.3022 41.1636C31.3271 41.0889 31.3894 41.0515 31.489 41.0515C31.7131 41.0515 31.8376 41.0079 31.8625 40.9208C31.8875 40.8336 31.8625 40.678 31.7878 40.4539C31.7131 40.2297 31.6633 40.0679 31.6384 39.9683C31.6135 39.769 31.4766 39.52 31.2275 39.2212C30.9785 38.9224 30.8291 38.7356 30.7793 38.6609C30.6548 38.885 30.4556 38.9846 30.1816 38.9597C29.9077 38.9348 29.7085 38.8228 29.584 38.6235C29.584 38.6484 29.5653 38.7169 29.528 38.829C29.4906 38.941 29.4719 39.022 29.4719 39.0718C29.1482 39.0718 28.9614 39.0593 28.9116 39.0344C28.9365 38.9597 28.9677 38.7418 29.005 38.3807C29.0424 38.0197 29.0859 37.7395 29.1357 37.5403C29.1606 37.4407 29.2291 37.2913 29.3412 37.092C29.4532 36.8928 29.5466 36.7123 29.6213 36.5504C29.696 36.3885 29.7458 36.2329 29.7708 36.0835C29.7957 35.9341 29.7396 35.8158 29.6027 35.7286C29.4657 35.6415 29.2478 35.6104 28.949 35.6353C28.4758 35.6602 28.1521 35.9092 27.9778 36.3823C27.9529 36.457 27.9155 36.5878 27.8657 36.7745C27.8159 36.9613 27.7537 37.1045 27.679 37.2041C27.6042 37.3037 27.4922 37.3909 27.3428 37.4656C27.1685 37.5403 26.8696 37.5652 26.4463 37.5403C26.0229 37.5154 25.7241 37.4531 25.5498 37.3535C25.2261 37.1543 24.9459 36.7932 24.7094 36.2703C24.4728 35.7473 24.3545 35.2866 24.3545 34.8882C24.3545 34.6392 24.3856 34.3092 24.4479 33.8983C24.5101 33.4874 24.5475 33.1761 24.5599 32.9645C24.5724 32.7528 24.5039 32.4478 24.3545 32.0493C24.4292 31.9995 24.5413 31.8812 24.6907 31.6945C24.8401 31.5077 24.9646 31.377 25.0642 31.3022C25.114 31.2773 25.17 31.2587 25.2323 31.2462C25.2946 31.2338 25.3506 31.2338 25.4004 31.2462C25.4502 31.2587 25.5 31.24 25.5498 31.1902C25.5996 31.1404 25.637 31.0657 25.6619 30.9661C25.637 30.9412 25.5872 30.9038 25.5125 30.854C25.4377 30.7793 25.3879 30.7419 25.363 30.7419C25.5374 30.8167 25.8922 30.798 26.4276 30.6859C26.963 30.5739 27.3054 30.5925 27.4548 30.7419C27.8284 31.0159 28.1023 30.991 28.2766 30.6672C28.2766 30.6423 28.2455 30.524 28.1832 30.3124C28.121 30.1007 28.1147 29.9326 28.1646 29.8081C28.2891 30.4805 28.6501 30.5925 29.2478 30.1443C29.3225 30.219 29.5155 30.2812 29.8268 30.3311C30.1381 30.3809 30.356 30.4431 30.4805 30.5178C30.5552 30.5676 30.6423 30.6361 30.7419 30.7233C30.8416 30.8104 30.91 30.8665 30.9474 30.8914C30.9847 30.9163 31.047 30.91 31.1342 30.8727C31.2213 30.8353 31.3271 30.7544 31.4517 30.6299C31.7007 30.9785 31.8501 31.2773 31.8999 31.5264C32.1738 32.5225 32.4104 33.0703 32.6096 33.1699C32.7839 33.2446 32.9209 33.2695 33.0205 33.2446C33.1201 33.2197 33.1761 33.1014 33.1886 32.8898C33.201 32.6781 33.201 32.5038 33.1886 32.3668C33.1761 32.2299 33.1575 32.0742 33.1326 31.8999L33.0952 31.6011V30.9287L33.0579 30.6299C32.6843 30.5552 32.454 30.4058 32.3668 30.1816C32.2797 29.9575 32.2983 29.7272 32.4229 29.4906C32.5474 29.254 32.7341 29.0237 32.9832 28.7996C33.0081 28.7747 33.1077 28.7311 33.282 28.6688C33.4563 28.6066 33.6493 28.5256 33.861 28.426C34.0726 28.3264 34.2283 28.2268 34.3279 28.1272C34.8508 27.6541 35.0376 27.2183 34.8882 26.8198C35.0625 26.8198 35.1995 26.7078 35.2991 26.4836C35.2742 26.4836 35.2119 26.4463 35.1123 26.3716C35.0127 26.2969 34.9193 26.2346 34.8322 26.1848C34.745 26.135 34.689 26.1101 34.6641 26.1101C34.8882 25.9856 34.9131 25.7864 34.7388 25.5125C34.8633 25.4377 34.9567 25.3008 35.0189 25.1016C35.0812 24.9023 35.1746 24.7778 35.2991 24.728C35.5232 25.0269 35.7847 25.0518 36.0835 24.8027C36.2578 24.6035 36.2703 24.4043 36.1208 24.2051C36.2454 24.0308 36.5006 23.9 36.8866 23.8129C37.2726 23.7257 37.5029 23.6074 37.5776 23.458C37.752 23.5078 37.8516 23.4829 37.8765 23.3833C37.9014 23.2837 37.9138 23.1343 37.9138 22.9351C37.9138 22.7358 37.9512 22.5864 38.0259 22.4868C38.1255 22.3623 38.3123 22.2502 38.5862 22.1506C38.8601 22.051 39.022 21.9888 39.0718 21.9639L39.7068 21.553C39.7815 21.4534 39.7815 21.4036 39.7068 21.4036C40.155 21.4534 40.541 21.3164 40.8647 20.9927C41.1138 20.7187 41.0391 20.4697 40.6406 20.2456C40.7153 20.0962 40.678 19.9779 40.5286 19.8907C40.3792 19.8036 40.1924 19.7351 39.9683 19.6853C40.043 19.6604 40.1862 19.6542 40.3978 19.6666C40.6095 19.6791 40.7402 19.6604 40.79 19.6106C41.1636 19.3616 41.0764 19.1624 40.5286 19.0129C40.1052 18.8884 39.5698 19.0378 38.9224 19.4612ZM32.8337 52.2202C37.9636 51.3237 42.334 48.9705 45.9448 45.1604C45.8701 45.0857 45.7145 45.0297 45.4779 44.9923C45.2413 44.955 45.0857 44.9114 45.011 44.8616C44.5627 44.6873 44.2639 44.5876 44.1145 44.5627C44.1394 44.3884 44.1083 44.2266 44.0211 44.0771C43.934 43.9277 43.8344 43.8157 43.7223 43.741C43.6102 43.6663 43.4546 43.5667 43.2554 43.4421C43.0562 43.3176 42.9192 43.2305 42.8445 43.1807C42.7947 43.1309 42.7075 43.0562 42.583 42.9565C42.4585 42.8569 42.3713 42.7885 42.3215 42.7511C42.2717 42.7137 42.1783 42.6577 42.0414 42.583C41.9044 42.5083 41.7986 42.4834 41.7239 42.5083C41.6492 42.5332 41.5247 42.5457 41.3503 42.5457L41.2383 42.583C41.1636 42.6079 41.0951 42.639 41.0328 42.6764C40.9706 42.7137 40.9021 42.7511 40.8274 42.7885C40.7527 42.8258 40.7029 42.8632 40.678 42.9005C40.6531 42.9379 40.6531 42.969 40.678 42.9939C40.155 42.5706 39.7068 42.2966 39.3333 42.1721C39.2087 42.1472 39.0718 42.0787 38.9224 41.9667C38.7729 41.8546 38.6422 41.7675 38.5302 41.7052C38.4181 41.6429 38.2936 41.6243 38.1566 41.6492C38.0197 41.6741 37.8765 41.7612 37.7271 41.9106C37.6025 42.0352 37.5278 42.2219 37.5029 42.4709C37.478 42.72 37.4531 42.8818 37.4282 42.9565C37.2539 42.832 37.2539 42.6141 37.4282 42.3029C37.6025 41.9916 37.6274 41.7612 37.5029 41.6118C37.4282 41.4624 37.2975 41.4064 37.1107 41.4437C36.924 41.4811 36.7745 41.5371 36.6625 41.6118C36.5504 41.6865 36.4072 41.7924 36.2329 41.9293C36.0586 42.0663 35.9465 42.1472 35.8967 42.1721C35.8469 42.197 35.7411 42.2655 35.5792 42.3776C35.4174 42.4896 35.3115 42.583 35.2617 42.6577C35.187 42.7573 35.1123 42.9067 35.0376 43.106C34.9629 43.3052 34.9006 43.4421 34.8508 43.5168C34.801 43.4172 34.6578 43.3363 34.4213 43.274C34.1847 43.2118 34.0664 43.1433 34.0664 43.0686C34.1162 43.3176 34.166 43.7534 34.2158 44.376C34.2656 44.9985 34.3279 45.4717 34.4026 45.7954C34.5769 46.5674 34.4275 47.165 33.9543 47.5884C33.282 48.2109 32.9209 48.709 32.8711 49.0825C32.7715 49.6304 32.9209 49.9541 33.3193 50.0537C33.3193 50.228 33.2197 50.4833 33.0205 50.8195C32.8213 51.1556 32.7341 51.4233 32.759 51.6226C32.759 51.772 32.7839 51.9712 32.8337 52.2202Z" fill="black"/>
</svg>
