<svg width="62" height="58" viewBox="0 0 62 58" fill="none" xmlns="http://www.w3.org/2000/svg">
<path fill-rule="evenodd" clip-rule="evenodd" d="M46.4501 40.507C43.3617 42.2666 40.2609 44.0138 37.1478 45.7488C35.5728 46.6224 33.9978 47.4837 32.4228 48.3697C31.7707 48.7388 31.0816 49.3294 30.3187 49.4648C29.5312 49.6002 28.8052 49.2064 28.0916 48.9357C26.2335 48.2097 24.3386 47.5084 22.4806 46.7947C21.3609 46.364 21.8039 45.0351 22.3822 44.3953C23.1943 43.497 24.6339 44.2968 25.483 44.6906C26.775 45.2935 28.1408 45.6503 29.4943 46.081C32.5089 47.0531 35.6589 42.1558 32.8289 40.224C31.783 39.5226 30.2818 39.1658 29.1005 38.6982C26.5166 37.6769 23.9203 36.6679 21.3609 35.5851C19.6628 34.8714 17.9525 33.9363 16.1068 33.7025C14.3964 33.4933 12.4154 33.7886 10.7666 34.2685C9.85601 34.5269 8.82241 34.9822 8.09644 35.5974C7.60425 36.0158 7.18589 36.6556 6.98901 37.2709V51.0521C6.98901 51.0521 7.07515 51.8396 7.86265 51.655C10.1882 51.1136 12.9568 51.2736 15.2701 51.7781C17.448 52.258 19.4291 53.4392 21.4839 54.2636C23.7603 55.1742 26.0982 55.9002 28.3992 56.7123C32.2013 58.0535 34.9084 54.8173 37.923 53.1193C41.6021 51.0521 45.2689 48.9603 48.9357 46.8931C49.5509 46.5486 50.1539 46.2041 50.7691 45.8595C51.7166 45.3181 52.6271 43.3371 52.5287 42.3158C52.2457 39.1412 48.5173 39.3257 46.4501 40.507Z" fill="black"/>
<path fill-rule="evenodd" clip-rule="evenodd" d="M4.56504 37.2339H1.47656C0.664453 37.2339 0 37.8983 0 38.7104V50.1907C0 51.0028 0.664453 51.6673 1.47656 51.6673H4.56504C5.37715 51.6673 6.0416 51.0028 6.0416 50.1907V38.7104C6.0416 37.8983 5.37715 37.2339 4.56504 37.2339ZM3.81445 40.6177C3.19922 40.6177 2.70703 40.1255 2.70703 39.5103C2.70703 38.895 3.19922 38.4028 3.81445 38.4028C4.42969 38.4028 4.92188 38.895 4.92188 39.5103C4.92188 40.1132 4.41738 40.6177 3.81445 40.6177Z" fill="black"/>
<path d="M61.5234 29.2729H9.90527V31.3771H61.5234V29.2729Z" fill="black"/>
<path fill-rule="evenodd" clip-rule="evenodd" d="M14.3597 28.1408C14.3966 27.8086 14.4581 27.2918 14.5565 26.7504C14.5812 26.6397 14.5935 26.5289 14.6181 26.4059C14.6427 26.2828 14.6673 26.1598 14.7042 26.0367C14.7657 25.7783 14.8272 25.4953 14.8888 25.2C14.9257 25.0523 14.9626 24.8924 14.9995 24.7447C15.0487 24.5848 15.0856 24.4248 15.1349 24.2648C15.2333 23.9326 15.3317 23.5881 15.4302 23.2313C15.6763 22.5176 15.9224 21.7424 16.2546 20.9549C16.3407 20.758 16.4146 20.5488 16.5007 20.352C16.5991 20.1551 16.6853 19.9459 16.7837 19.749C16.8821 19.5398 16.9806 19.343 17.0667 19.1338C17.1651 18.9246 17.2759 18.7277 17.3866 18.5186C17.4974 18.3094 17.6081 18.1002 17.7188 17.891C17.8296 17.6818 17.9649 17.485 18.0757 17.2758C18.1987 17.0666 18.3218 16.8697 18.4448 16.6605C18.5802 16.4514 18.7155 16.2545 18.8509 16.0576C18.9862 15.8607 19.1216 15.6516 19.2569 15.4547C19.4046 15.2578 19.5522 15.0609 19.6999 14.8641C19.9829 14.4703 20.3028 14.0889 20.6105 13.7197C20.7581 13.5229 20.9304 13.3506 21.0903 13.166C21.2503 12.9814 21.4226 12.8092 21.5825 12.6246C21.7548 12.4523 21.9271 12.2801 22.087 12.1078C22.2593 11.9355 22.4192 11.7633 22.6038 11.6033C22.7761 11.4434 22.9483 11.2834 23.1206 11.1111C23.2929 10.9512 23.4774 10.8035 23.6497 10.6436C23.9942 10.3359 24.3634 10.0529 24.7079 9.76992C24.8802 9.62227 25.0647 9.49922 25.237 9.36387C25.4216 9.22852 25.5938 9.09317 25.7661 8.98242C26.123 8.73633 26.4675 8.49024 26.812 8.28106C27.5011 7.83809 28.1778 7.45664 28.8054 7.11211C29.4329 6.77988 30.0235 6.49688 30.5526 6.26309C31.0817 6.0293 31.5493 5.84473 31.9308 5.69707C32.706 5.40176 33.1612 5.29102 33.1612 5.29102C33.1612 5.29102 32.7183 5.45098 31.98 5.82012C31.2417 6.17695 30.2081 6.74297 29.0392 7.53047C28.4608 7.92422 27.8333 8.36719 27.2058 8.85938C26.8858 9.10547 26.5782 9.37617 26.246 9.64688C26.086 9.78223 25.9261 9.92988 25.7661 10.0775C25.6062 10.2252 25.4462 10.3605 25.2862 10.5205C24.9786 10.8281 24.6464 11.1357 24.3388 11.468C24.1911 11.6279 24.0188 11.7879 23.8712 11.9602C23.7235 12.1324 23.5759 12.3047 23.4159 12.477C23.256 12.6492 23.1206 12.8215 22.973 13.0061C22.8253 13.1906 22.6776 13.3629 22.5423 13.5475C22.4069 13.732 22.2716 13.9166 22.1239 14.1012C21.9886 14.2857 21.8409 14.4703 21.7179 14.6672C21.4595 15.0609 21.1888 15.4301 20.9673 15.8361C20.8442 16.033 20.7335 16.2299 20.6105 16.4268C20.4997 16.6236 20.389 16.8328 20.2782 17.0297C20.1675 17.2266 20.0567 17.4234 19.9583 17.6326C19.8599 17.8418 19.7614 18.0387 19.6753 18.2355C19.5769 18.4324 19.4784 18.6293 19.3923 18.8385C19.3062 19.0354 19.22 19.2445 19.1462 19.4414C19.0601 19.6383 18.9739 19.8352 18.9001 20.032C18.8263 20.2289 18.7647 20.4258 18.6909 20.6227C18.6171 20.8195 18.5556 21.0164 18.4817 21.201C18.4202 21.3979 18.371 21.5824 18.3095 21.7793C18.0634 22.5299 17.9157 23.2682 17.7558 23.9326C17.6942 24.2772 17.6327 24.5971 17.5835 24.9047C17.5589 25.0647 17.522 25.2123 17.4974 25.36C17.4728 25.5076 17.4604 25.6553 17.4358 25.7906C17.3989 26.0736 17.362 26.332 17.3374 26.5658C17.3251 26.6889 17.3128 26.7996 17.2882 26.9104C17.2759 27.0211 17.2759 27.1318 17.2636 27.2303C17.2267 27.6609 17.2021 27.9809 17.1897 28.2023H59.5179C59.5179 28.1039 59.5179 28.0055 59.5179 27.907C59.5179 14.6672 49.2927 3.87598 36.5081 3.4207V1.98106C37.7632 1.85801 38.6737 1.46426 38.6737 1.00898C38.6737 0.455274 37.3202 0 35.6591 0C33.998 0 32.6444 0.455274 32.6444 1.00898C32.6444 1.46426 33.555 1.85801 34.8101 1.98106V3.35918C22.0255 3.81445 11.8003 14.6057 11.8003 27.8455C11.8003 27.9439 11.8003 28.0424 11.8003 28.1408H14.3597ZM45.3306 8.04727C45.5151 8.10879 45.7366 8.20723 45.9827 8.31797C46.2288 8.42871 46.5118 8.56406 46.8071 8.72402C47.1024 8.88398 47.4224 9.06856 47.7423 9.27773C47.9023 9.37617 48.0745 9.49922 48.2345 9.60996C48.3206 9.67149 48.3944 9.73301 48.4806 9.79453C48.5667 9.85606 48.6528 9.91758 48.7267 9.9791C48.8866 10.1145 49.0589 10.2498 49.2312 10.3852C49.3173 10.459 49.4034 10.5328 49.4773 10.6066C49.5634 10.6805 49.6372 10.7543 49.7233 10.8404C49.8095 10.9143 49.8833 11.0004 49.9694 11.0742C50.0433 11.1604 50.1294 11.2342 50.2032 11.3203C50.2771 11.4064 50.3509 11.4926 50.437 11.5787C50.5108 11.6648 50.597 11.751 50.6585 11.8371C50.8062 12.0217 50.9538 12.1939 51.0892 12.3785C51.163 12.477 51.2245 12.5631 51.2983 12.6615C51.3599 12.76 51.4214 12.8461 51.4952 12.9445C51.5567 13.043 51.6183 13.1291 51.6798 13.2275C51.7413 13.326 51.7905 13.4244 51.8521 13.5229C51.9136 13.6213 51.9751 13.7197 52.0243 13.8182C52.0735 13.9166 52.1228 14.015 52.1843 14.1135C52.2335 14.2119 52.295 14.3104 52.3319 14.4088C52.3812 14.5072 52.4181 14.6057 52.4673 14.7041C52.5165 14.8025 52.5534 14.901 52.6026 14.9871C52.6396 15.0855 52.6765 15.184 52.7134 15.2701C52.8733 15.6393 52.9841 16.0084 53.1071 16.3406C53.1564 16.5129 53.2056 16.6729 53.2425 16.8328C53.2671 16.9066 53.2917 16.9805 53.304 17.0543C53.3163 17.1281 53.3409 17.202 53.3532 17.2758C53.3901 17.4111 53.4148 17.5465 53.4394 17.6695C53.4517 17.7311 53.464 17.7926 53.4763 17.8418C53.4886 17.9033 53.5009 17.9525 53.5009 18.0018C53.5747 18.4078 53.6116 18.8139 53.6116 18.8139L52.2458 18.7893C52.2458 18.7893 52.2335 18.5801 52.1966 18.1986C52.1966 18.1494 52.1843 18.1002 52.1843 18.051C52.172 18.0018 52.172 17.9402 52.1597 17.891C52.1474 17.7803 52.1351 17.6572 52.1105 17.5219C52.0982 17.4604 52.0981 17.3865 52.0858 17.325C52.0735 17.2512 52.0612 17.1896 52.0489 17.1158C52.0243 16.9682 51.9997 16.8205 51.9628 16.6605C51.889 16.3529 51.8151 15.9961 51.7044 15.6516C51.6798 15.5654 51.6552 15.467 51.6183 15.3809C51.5814 15.2947 51.5567 15.1963 51.5198 15.1102C51.4829 15.024 51.4583 14.9256 51.4214 14.8272C51.3845 14.7287 51.3476 14.6426 51.3107 14.5441C51.2737 14.4457 51.2368 14.3596 51.1876 14.2611C51.1507 14.1627 51.1015 14.0766 51.0523 13.9781C51.003 13.8797 50.9661 13.7936 50.9169 13.6951C50.8677 13.5967 50.8185 13.5105 50.7692 13.4121C50.72 13.3137 50.6708 13.2275 50.6093 13.1291C50.5478 13.043 50.4985 12.9445 50.437 12.8461C50.3263 12.6615 50.2032 12.477 50.0802 12.2924C50.0187 12.2063 49.9571 12.1201 49.8956 12.0217C49.8341 11.9355 49.7603 11.8494 49.6987 11.7633C49.6249 11.6772 49.5634 11.591 49.4896 11.5049C49.4157 11.4188 49.3542 11.3326 49.2804 11.2588C49.2065 11.1727 49.1327 11.0988 49.0712 11.0127C48.9974 10.9266 48.9235 10.8527 48.8497 10.7789C48.7021 10.6189 48.5544 10.4836 48.4067 10.3359C48.3329 10.2621 48.2591 10.2006 48.1853 10.1268C48.1114 10.0652 48.0376 9.99141 47.9638 9.92988C47.8161 9.80684 47.6685 9.67149 47.5208 9.56074C47.2255 9.32695 46.9302 9.11778 46.6595 8.9332C46.1058 8.56406 45.6259 8.30567 45.2814 8.1334C44.9368 7.96113 44.7276 7.88731 44.7276 7.88731C44.7276 7.88731 44.9737 7.91191 45.3306 8.04727Z" fill="black"/>
</svg>
