<svg width="244" height="431" viewBox="0 0 244 431" fill="none" xmlns="http://www.w3.org/2000/svg">
<path d="M158.037 88.5024C158.037 78.9077 161.225 69.2989 159.418 59.8732C157.478 49.6867 149.866 40.1483 152.173 29.99C153.643 23.6781 158.654 18.7187 163.489 14.2665L172.791 5.55939C173.795 4.48449 175.002 3.60029 176.347 2.95289C177.809 2.46179 179.355 2.24185 180.903 2.30478C190.563 2.13571 200.218 2.22964 209.868 2.58657C217.862 2.86835 226.871 3.82642 231.809 9.85659C236.217 15.3232 235.762 23.0723 234.204 29.8492C232.646 36.6261 230.251 43.5298 231.662 50.3348C233.454 58.9715 241.258 66.9742 238.539 75.3854C237.363 79.0627 234.307 81.9369 232.867 85.5296C231.676 88.4883 231.515 91.9966 229.163 94.2227C227.471 95.5595 225.445 96.4527 223.285 96.8151C207.855 100.732 192.424 105.663 176.935 109.185C164.194 112.102 157.992 99.4075 158.037 88.5024Z" fill="url(#paint0_linear)"/>
<path d="M107.484 430.278C166.845 430.278 214.967 421.914 214.967 411.596C214.967 401.278 166.845 392.914 107.484 392.914C48.1221 392.914 0 401.278 0 411.596C0 421.914 48.1221 430.278 107.484 430.278Z" fill="url(#paint1_linear)"/>
<path d="M93.905 388.997C93.905 388.997 96.2269 403.579 94.9778 405.241C93.7287 406.904 86.4249 406.34 81.9281 405.396C77.4312 404.452 76.3438 398.859 76.3438 398.859L76.0352 394.266L93.905 388.997Z" fill="#F7AF81"/>
<path d="M154.774 383.939C154.774 383.939 157.713 401.776 156.714 403.326C155.715 404.876 148.823 404.636 144.811 404.171C140.799 403.706 140.284 393.956 140.284 393.956L139.608 389.969L154.774 383.939Z" fill="#F7AF81"/>
<path d="M95.3159 39.8385C95.6491 40.578 96.0629 41.2816 96.5503 41.9378C98.0934 44.5443 97.3439 48.0947 99.2543 50.4758C99.7246 48.5597 103.663 35.0904 101.797 34.2169C101.356 34.0056 99.0339 35.8653 98.4901 36.1048C96.8148 36.7952 94.4782 37.3447 95.3159 39.8385Z" fill="#7D3B3D"/>
<path d="M144.855 209.824L148.675 284.582L156.023 388.165C156.023 388.165 151.806 393.012 139.667 393.167L117.829 287.752L107.542 234.213L98.725 286.47L95.0364 395.323C95.0364 395.323 86.4689 395.492 75.3296 396.45L68.1141 289.118L75.2561 205.992L144.855 209.824Z" fill="#68E1FD"/>
<path d="M144.855 209.824L148.675 284.582L156.023 388.165C156.023 388.165 151.806 393.012 139.667 393.167L117.829 287.752L107.542 234.213L98.725 286.47L95.0364 395.323C95.0364 395.323 86.4689 395.492 75.3296 396.45L68.1141 289.118L75.2561 205.992L144.855 209.824Z" fill="url(#paint2_linear)"/>
<path d="M82.6335 88.7703L75.947 124.205C75.3445 124.585 56.1814 137.054 53.9036 139.928C51.6258 142.802 41.912 146.663 38.5908 147.226C35.2695 147.79 27.8776 141.732 29.068 132.489C30.2583 123.247 68.7461 92.6166 72.7727 90.4328C76.7993 88.249 82.6335 88.7703 82.6335 88.7703Z" fill="white"/>
<path d="M78.313 107.029L75.947 124.204C75.3445 124.585 56.1814 137.053 53.9036 139.928C51.6258 142.802 41.912 146.662 38.5908 147.226C35.2695 147.789 27.8776 141.731 29.068 132.489L49.6418 129.671L78.313 107.029Z" fill="url(#paint3_linear)"/>
<path d="M157.684 251.021C157.684 251.585 157.111 252.078 156.214 252.501C149.91 255.403 124.986 254.854 109.6 253.36C108.13 253.219 107.689 232.917 107.689 232.917C107.689 232.917 102.281 252.487 101.047 252.247C87.7328 249.824 64.9987 247.316 64.9987 247.316C70.4527 226.42 73.7603 205.062 74.8742 183.548C76.8287 140.478 72.2289 90.7004 73.6838 89.5733C76.3143 87.5445 101.767 79.9645 101.767 79.9645L128.219 82.1624L131.467 83.5713C137.051 85.9383 148.044 90.6159 149.719 92.0248C149.807 92.0248 149.866 92.3348 149.925 92.7434C150.101 94.0114 150.189 96.8715 150.233 100.971C150.336 110.552 150.233 126.881 150.321 145.55C150.321 147.522 150.321 149.523 150.321 151.552C150.439 164.965 150.718 179.321 151.277 193.073C152.335 218.715 157.831 249.091 157.684 251.021Z" fill="white"/>
<path d="M157.684 251.021C157.684 251.585 157.111 252.078 156.214 252.5C149.581 253.29 142.911 253.76 136.228 253.909L139.667 235.396L135.802 139.59L145.677 126.43L150.262 145.563C150.262 160.653 150.586 177.278 151.247 193.086C152.335 218.714 157.831 249.091 157.684 251.021Z" fill="url(#paint4_linear)"/>
<path d="M171.836 160.343C169.352 163.865 164.018 164.823 159.932 163.161C157.926 162.243 156.139 160.939 154.683 159.329C153.226 157.719 152.132 155.839 151.468 153.806C151.154 152.992 150.761 152.209 150.292 151.467C148.249 148.113 144.972 144.577 144.825 141.153C144.428 133.024 141.283 124.909 141.269 116.765C141.269 110.495 145.677 103.733 148.043 97.2938C148.622 95.7841 149.06 94.2282 149.351 92.6444C149.522 92.6233 149.695 92.6233 149.866 92.6444C153.099 93.0388 157.067 100.013 158.286 102.324C160.347 106.428 161.83 110.778 162.695 115.258C164.576 124.26 166.369 128.558 170.043 137.011C171.351 139.97 171.792 147.902 172.688 151.002C173.254 152.526 173.47 154.15 173.323 155.761C173.176 157.373 172.669 158.936 171.836 160.343Z" fill="white"/>
<path d="M170.131 137.054L163.151 145.507C163.151 145.507 158.654 133.151 157.39 127.29C156.244 122.105 152.585 107.269 150.189 100.915C149.946 100.228 149.661 99.5554 149.337 98.9001C148.991 98.3186 148.561 97.7872 148.058 97.3221C143.268 92.715 128.734 85.6422 128.734 85.6422L131.423 83.5288C137.007 85.8958 148 90.5734 149.675 91.9823C149.763 91.9823 149.822 92.2923 149.881 92.7009C153.114 93.0954 157.082 100.07 158.301 102.38C160.362 106.485 161.845 110.834 162.71 115.314C164.591 124.303 166.384 128.6 170.131 137.054Z" fill="url(#paint5_linear)"/>
<path d="M129.013 63.621C129.013 63.621 127.323 75.4277 128.675 79.7954C130.027 84.163 123.766 97.2519 114.493 98.1113C105.221 98.9708 103.795 83.7967 103.619 82.0215C103.442 80.2462 106.161 79.105 104.809 74.7374C103.457 70.3697 127.587 58.3657 129.013 63.621Z" fill="#F7AF81"/>
<path d="M104.809 74.6809C105.559 78.2626 105.428 81.9625 104.427 85.4873C106.881 87.2766 109.144 90.3481 111.775 90.1086C117.33 89.6295 125.265 77.7242 128.219 69.4116C128.219 69.2566 128.322 69.1016 128.366 68.9466C128.631 65.9597 128.954 63.6209 128.954 63.6209C127.587 58.3656 103.472 70.3133 104.809 74.6809Z" fill="#F69771"/>
<path d="M98.7252 37.7246C98.7252 37.7246 96.6238 60.9295 98.4166 67.1851C100.209 73.4407 105.764 78.865 111.334 78.9214C116.904 78.9777 125.354 74.596 129.16 66.5933C132.966 58.5907 135.038 38.9785 134.142 36.2875C133.245 33.5965 127.705 25.1007 112.818 26.256C102.575 27.045 98.7693 34.16 98.7252 37.7246Z" fill="#F7AF81"/>
<path d="M130.629 50.9407C130.629 50.9407 131.055 45.5164 134.935 46.9816C138.815 48.4469 135.097 58.6193 133.319 59.6619C132.537 60.2297 131.606 60.5763 130.629 60.6622" fill="#F7AF81"/>
<path d="M44.7482 141.703C44.7482 141.703 53.3745 139.463 50.3619 126.966C47.3493 114.468 36.4599 77.6534 36.4599 77.6534L26.5991 85.2475C26.5991 85.2475 23.175 135.785 30.3759 140.195C32.4921 141.483 34.8879 142.288 37.3794 142.549C39.8709 142.811 42.3917 142.521 44.7482 141.703Z" fill="#F7AF81"/>
<path d="M36.4598 77.6962C36.4598 77.6962 37.9294 71.1589 37.224 69.4118C36.5186 67.6647 29.3177 55.1394 26.4815 56.9569C23.6452 58.7745 19.5892 70.8489 19.2659 71.6661C18.9426 72.4832 26.5991 85.248 26.5991 85.248L36.4598 77.6962Z" fill="#F7AF81"/>
<path d="M174.04 159.103L198.538 127.135L197.818 107.861L157.111 148.043C156.026 149.157 155.225 150.497 154.771 151.958C154.317 153.418 154.222 154.96 154.494 156.462C154.766 157.963 155.397 159.384 156.338 160.612C157.279 161.841 158.505 162.843 159.918 163.542L162.945 163.837C165.065 164.052 167.207 163.727 169.154 162.896C171.102 162.065 172.787 160.757 174.04 159.103Z" fill="#F7AF81"/>
<path d="M195.231 128.389C197.52 127.937 199.763 127.291 201.933 126.459C203.725 125.543 209.427 106.029 207.811 104.733C206.194 103.437 199.493 99.7738 197.627 100.957C195.76 102.141 185.694 111.411 185.694 111.411C185.694 111.411 188.545 130.333 195.231 128.389Z" fill="#F7AF81"/>
<path d="M101.782 79.9642L104.265 78.203C104.265 78.203 107.205 92.5035 112.524 93.9406C112.524 93.9406 121.004 97.1248 128.293 78.4425L131.085 83.8387C131.085 83.8387 125.927 95.5609 123.149 96.8007C120.372 98.0406 112.333 105.508 105.118 95.5609C101.694 90.7846 101.782 79.9642 101.782 79.9642Z" fill="#68E1FD"/>
<path d="M101.782 79.9642L104.265 78.203C104.265 78.203 107.205 92.5035 112.524 93.9406C112.524 93.9406 121.004 97.1248 128.293 78.4425L131.085 83.8387C131.085 83.8387 125.927 95.5609 123.149 96.8007C120.372 98.0406 112.333 105.508 105.118 95.5609C101.694 90.7846 101.782 79.9642 101.782 79.9642Z" fill="url(#paint6_linear)"/>
<path d="M41.0155 63.015C42.3953 61.8314 43.5795 60.4537 44.5277 58.9291C44.672 58.6958 44.7142 58.4173 44.6453 58.1542C44.5565 57.9917 44.4181 57.8589 44.2485 57.7738C43.6233 57.4342 42.917 57.2557 42.1985 57.2557C41.4799 57.2557 40.7736 57.4342 40.1484 57.7738C38.8961 58.4672 37.9231 59.544 37.3857 60.8312C37.1999 61.3794 36.9111 61.8903 36.5333 62.3387C36.0473 62.681 35.4843 62.909 34.8895 63.0044C34.2948 63.0999 33.685 63.0601 33.1092 62.8882C32.8232 62.7958 32.5135 62.7958 32.2275 62.8882C31.7719 63.1136 31.7132 63.7054 31.7572 64.1985C31.8895 65.7342 33.9175 70.9613 36.2688 70.5668C37.2387 70.3977 37.7384 67.749 38.1352 67.0022C38.9006 65.5532 39.8698 64.2116 41.0155 63.015Z" fill="#F7AF81"/>
<path d="M98.4753 35.9358C98.4753 35.9358 119.049 29.2293 134.759 45.2769L136.449 23.9036C139.025 23.6636 141.553 23.0755 143.958 22.1566C148.675 20.5081 151.306 10.6457 145.237 8.99725C143.402 8.5477 141.485 8.49915 139.629 8.85519C137.772 9.21124 136.022 9.96278 134.509 11.0543C134.509 11.0543 139.667 0.769168 125.824 0.769168C125.824 0.769168 119.064 1.99493 117.785 6.32031C117.785 6.32031 113.274 -2.62633 105.559 0.769168C97.8434 4.16466 98.7986 8.16599 98.7986 8.16599C98.7986 8.16599 93.3171 6.01034 91.7153 8.78591C90.1135 11.5615 89.4081 15.9291 94.6544 16.5068C103.016 17.4226 101.312 19.071 101.312 19.071L98.4753 35.9358Z" fill="#68E1FD"/>
<path d="M128.954 55.8014C131.019 53.0267 132.676 49.9925 133.877 46.7843C134.338 47.5443 135.06 48.127 135.92 48.4328C136.35 48.5741 136.817 48.5747 137.248 48.4345C137.679 48.2943 138.049 48.0212 138.301 47.6579C138.476 47.2998 138.534 46.8989 138.465 46.5087C138.397 46.1185 138.206 45.7575 137.918 45.474C137.338 44.9097 136.578 44.5476 135.758 44.4455C135.527 44.4288 135.307 44.3452 135.126 44.206C134.744 43.8115 135.126 43.1211 134.906 42.6703C134.727 42.4702 134.484 42.3317 134.215 42.2758C132.878 41.8531 130.791 40.8669 129.498 40.5851C128.822 42.6562 130.306 45.6572 130.145 47.9255C129.947 50.575 129.549 53.2072 128.954 55.8014Z" fill="#7D3B3D"/>
<path d="M131.717 68.0168C131.665 68.6224 131.532 69.2191 131.32 69.792C130.709 70.9404 129.791 71.9128 128.66 72.6098C128.504 72.7399 128.318 72.8318 128.117 72.8775C127.914 72.8756 127.718 72.8031 127.567 72.6735C127.416 72.544 127.318 72.3662 127.294 72.1731C127.252 71.7818 127.323 71.3872 127.499 71.0319L130.35 63.2828C130.578 62.711 130.755 62.1219 130.879 61.5217C130.902 61.2405 130.972 60.9647 131.085 60.7045C131.291 60.3241 132.011 59.7746 132.555 60.0282C133.098 60.2818 132.643 61.7189 132.555 62.1979L131.717 68.0168Z" fill="#7D3B3D"/>
<path d="M155.039 118.202L243.506 98.5621L228.737 97.6182L164.679 112.285L155.039 118.202Z" fill="#68E1FD"/>
<path d="M155.039 118.202L243.506 98.5621L228.737 97.6182L164.679 112.285L155.039 118.202Z" fill="url(#paint7_linear)"/>
<path d="M164.738 112.299C164.738 112.299 157.713 82.1342 185.312 76.3858C219.42 69.3412 228.678 97.6323 228.678 97.6323L164.738 112.299Z" fill="#68E1FD"/>
<path d="M228.737 97.6325L164.738 112.299C164.738 112.299 157.713 82.1344 185.312 76.386C186.943 76.0479 188.515 75.7943 190.029 75.6111C217.951 72.2015 227.224 93.7439 228.517 97.1676L228.737 97.6325Z" fill="url(#paint8_linear)"/>
<path d="M228.561 97.167L176.92 109.002C176.92 109.002 171.307 84.7544 190.146 75.6105C217.936 72.201 227.267 93.701 228.561 97.167Z" fill="url(#paint9_linear)"/>
<path d="M184.298 76.78C185.954 76.78 187.296 75.4932 187.296 73.9058C187.296 72.3184 185.954 71.0316 184.298 71.0316C182.642 71.0316 181.3 72.3184 181.3 73.9058C181.3 75.4932 182.642 76.78 184.298 76.78Z" fill="#68E1FD"/>
<path d="M56.064 404.058C53.507 404.988 50.803 406.425 50.803 409.567C50.8187 410.81 51.263 412.014 52.0668 412.99C55.197 417.02 60.987 417.217 66.0717 417.02C75.5621 416.554 84.9952 415.329 94.2726 413.357C94.9063 413.269 95.5074 413.032 96.0214 412.666C96.5121 412.14 96.8202 411.48 96.9031 410.778C97.5586 407.713 97.658 404.563 97.197 401.465C97.1559 401.18 97.0367 400.91 96.8516 400.683C96.6665 400.456 96.422 400.279 96.1429 400.172C95.8639 400.065 95.5602 400.03 95.2627 400.072C94.9652 400.113 94.6845 400.229 94.4489 400.409C92.6059 401.86 90.2612 402.594 87.88 402.466C82.2222 402.113 80.0619 397.365 74.2866 398.986C68.2761 400.662 61.8688 401.916 56.064 404.058Z" fill="#68E1FD"/>
<path d="M117.051 402.367C114.494 403.297 111.79 404.734 111.775 407.862C111.802 409.11 112.251 410.316 113.054 411.3C116.169 415.329 121.974 415.527 127.058 415.315C136.549 414.85 145.982 413.625 155.259 411.652C155.895 411.571 156.497 411.333 157.008 410.962C157.504 410.438 157.813 409.777 157.89 409.074C158.548 405.975 158.643 402.791 158.169 399.662C158.129 399.386 158.013 399.125 157.834 398.905C157.654 398.686 157.417 398.516 157.147 398.413C156.877 398.309 156.583 398.277 156.295 398.318C156.007 398.359 155.736 398.473 155.509 398.648C153.67 400.168 151.293 400.954 148.867 400.846C143.209 400.479 141.034 395.745 135.273 397.351C129.263 398.972 122.914 400.226 117.051 402.367Z" fill="#68E1FD"/>
<path d="M56.064 404.058C53.507 404.988 50.803 406.425 50.803 409.567C50.8187 410.81 51.263 412.014 52.0668 412.99C55.197 417.02 60.987 417.217 66.0717 417.02C75.5621 416.554 84.9952 415.329 94.2726 413.357C94.9063 413.269 95.5074 413.032 96.0214 412.666C96.5121 412.14 96.8202 411.48 96.9031 410.778C97.5586 407.713 97.658 404.563 97.197 401.465C97.1559 401.18 97.0367 400.91 96.8516 400.683C96.6665 400.456 96.422 400.279 96.1429 400.172C95.8639 400.065 95.5602 400.03 95.2627 400.072C94.9652 400.113 94.6845 400.229 94.4489 400.409C92.6059 401.86 90.2612 402.594 87.88 402.466C82.2222 402.113 80.0619 397.365 74.2866 398.986C68.2761 400.662 61.8688 401.916 56.064 404.058Z" fill="url(#paint10_linear)"/>
<path d="M117.051 402.367C114.494 403.297 111.79 404.734 111.775 407.862C111.802 409.11 112.251 410.316 113.054 411.3C116.169 415.329 121.974 415.527 127.058 415.315C136.549 414.85 145.982 413.625 155.259 411.652C155.895 411.571 156.497 411.333 157.008 410.962C157.504 410.438 157.813 409.777 157.89 409.074C158.548 405.975 158.643 402.791 158.169 399.662C158.129 399.386 158.013 399.125 157.834 398.905C157.654 398.686 157.417 398.516 157.147 398.413C156.877 398.309 156.583 398.277 156.295 398.318C156.007 398.359 155.736 398.473 155.509 398.648C153.67 400.168 151.293 400.954 148.867 400.846C143.209 400.479 141.034 395.745 135.273 397.351C129.263 398.972 122.914 400.226 117.051 402.367Z" fill="url(#paint11_linear)"/>
<path d="M105.882 115.455C106.888 115.455 107.704 114.673 107.704 113.708C107.704 112.743 106.888 111.961 105.882 111.961C104.876 111.961 104.06 112.743 104.06 113.708C104.06 114.673 104.876 115.455 105.882 115.455Z" fill="#68E1FD"/>
<path d="M102.34 138.392C103.347 138.392 104.163 137.61 104.163 136.645C104.163 135.68 103.347 134.898 102.34 134.898C101.334 134.898 100.518 135.68 100.518 136.645C100.518 137.61 101.334 138.392 102.34 138.392Z" fill="#68E1FD"/>
<path d="M101.694 165.951C102.7 165.951 103.516 165.168 103.516 164.203C103.516 163.239 102.7 162.456 101.694 162.456C100.687 162.456 99.8715 163.239 99.8715 164.203C99.8715 165.168 100.687 165.951 101.694 165.951Z" fill="#68E1FD"/>
<path d="M102.766 188.676C103.773 188.676 104.589 187.894 104.589 186.929C104.589 185.965 103.773 185.182 102.766 185.182C101.76 185.182 100.944 185.965 100.944 186.929C100.944 187.894 101.76 188.676 102.766 188.676Z" fill="#68E1FD"/>
<path d="M103.193 222.617C104.199 222.617 105.015 221.835 105.015 220.87C105.015 219.905 104.199 219.123 103.193 219.123C102.186 219.123 101.37 219.905 101.37 220.87C101.37 221.835 102.186 222.617 103.193 222.617Z" fill="#68E1FD"/>
<path d="M144.869 192.086C147.039 191.86 149.234 192.145 151.262 192.917C153.217 193.861 154.671 196.102 153.878 198.046C153.324 199.032 152.621 199.934 151.791 200.723C149.792 203.217 149.719 206.612 149.748 209.768L150.454 302.235C150.454 305.391 150.13 309.181 147.221 310.689C145.907 311.236 144.476 311.473 143.047 311.379C118.31 311.68 93.5769 311.929 68.8491 312.126C66.2773 312.126 63.2353 311.929 61.9274 309.801C61.4011 308.753 61.1537 307.596 61.2073 306.434C59.8942 269.765 63.5046 233.086 71.9498 197.299C72.1434 195.902 72.7502 194.587 73.6986 193.509C75.1682 192.1 83.3683 193.805 85.5727 193.763C92.2592 193.65 98.931 193.396 105.603 193.213L144.869 192.086Z" fill="#68E1FD"/>
<path d="M144.869 192.086C147.039 191.86 149.234 192.145 151.262 192.917C153.217 193.861 154.671 196.102 153.878 198.046C153.324 199.032 152.621 199.934 151.791 200.723C149.792 203.217 149.719 206.612 149.748 209.768L150.454 302.235C150.454 305.391 150.13 309.181 147.221 310.689C145.907 311.236 144.476 311.473 143.047 311.379C118.31 311.68 93.5769 311.929 68.8491 312.126C66.2773 312.126 63.2353 311.929 61.9274 309.801C61.4011 308.753 61.1537 307.596 61.2073 306.434C59.8942 269.765 63.5046 233.086 71.9498 197.299C72.1434 195.902 72.7502 194.587 73.6986 193.509C75.1682 192.1 83.3683 193.805 85.5727 193.763C92.2592 193.65 98.931 193.396 105.603 193.213L144.869 192.086Z" fill="url(#paint12_linear)"/>
<defs>
<linearGradient id="paint0_linear" x1="193.247" y1="20.3812" x2="198.571" y2="106.791" gradientUnits="userSpaceOnUse">
<stop offset="0.02" stop-color="white" stop-opacity="0"/>
<stop offset="0.39" stop-color="white" stop-opacity="0.39"/>
<stop offset="1" stop-color="white"/>
</linearGradient>
<linearGradient id="paint1_linear" x1="118.549" y1="269.394" x2="104.36" y2="467.802" gradientUnits="userSpaceOnUse">
<stop offset="0.01"/>
<stop offset="0.83" stop-opacity="0.07"/>
<stop offset="1" stop-opacity="0"/>
</linearGradient>
<linearGradient id="paint2_linear" x1="17287.8" y1="27411" x2="25760.3" y2="76056.1" gradientUnits="userSpaceOnUse">
<stop offset="0.01"/>
<stop offset="0.83" stop-opacity="0.07"/>
<stop offset="1" stop-opacity="0"/>
</linearGradient>
<linearGradient id="paint3_linear" x1="8833.21" y1="6219.59" x2="8278.55" y2="4177.17" gradientUnits="userSpaceOnUse">
<stop offset="0.01"/>
<stop offset="0.83" stop-opacity="0.07"/>
<stop offset="1" stop-opacity="0"/>
</linearGradient>
<linearGradient id="paint4_linear" x1="6935.58" y1="21290.5" x2="4590.31" y2="21269" gradientUnits="userSpaceOnUse">
<stop offset="0.01"/>
<stop offset="0.83" stop-opacity="0.07"/>
<stop offset="1" stop-opacity="0"/>
</linearGradient>
<linearGradient id="paint5_linear" x1="11086.7" y1="5188.07" x2="8900.82" y2="6231.02" gradientUnits="userSpaceOnUse">
<stop offset="0.01"/>
<stop offset="0.83" stop-opacity="0.07"/>
<stop offset="1" stop-opacity="0"/>
</linearGradient>
<linearGradient id="paint6_linear" x1="6217.37" y1="1465.08" x2="6194.83" y2="2635.6" gradientUnits="userSpaceOnUse">
<stop offset="0.01"/>
<stop offset="0.83" stop-opacity="0.07"/>
<stop offset="1" stop-opacity="0"/>
</linearGradient>
<linearGradient id="paint7_linear" x1="17799" y1="1828.96" x2="17840.8" y2="2361.25" gradientUnits="userSpaceOnUse">
<stop offset="0.01"/>
<stop offset="0.83" stop-opacity="0.07"/>
<stop offset="1" stop-opacity="0"/>
</linearGradient>
<linearGradient id="paint8_linear" x1="16704.5" y1="2761.57" x2="16898.5" y2="4051.27" gradientUnits="userSpaceOnUse">
<stop offset="0.02" stop-color="white" stop-opacity="0"/>
<stop offset="0.39" stop-color="white" stop-opacity="0.39"/>
<stop offset="1" stop-color="white"/>
</linearGradient>
<linearGradient id="paint9_linear" x1="13783.1" y1="2503.02" x2="13975.1" y2="3636.97" gradientUnits="userSpaceOnUse">
<stop offset="0.02" stop-color="white" stop-opacity="0"/>
<stop offset="0.39" stop-color="white" stop-opacity="0.39"/>
<stop offset="1" stop-color="white"/>
</linearGradient>
<linearGradient id="paint10_linear" x1="8251.33" y1="5568.96" x2="8322.07" y2="7257.63" gradientUnits="userSpaceOnUse">
<stop offset="0.01"/>
<stop offset="0.83" stop-opacity="0.07"/>
<stop offset="1" stop-opacity="0"/>
</linearGradient>
<linearGradient id="paint11_linear" x1="10246.4" y1="5504.72" x2="10316.5" y2="7187.01" gradientUnits="userSpaceOnUse">
<stop offset="0.01"/>
<stop offset="0.83" stop-opacity="0.07"/>
<stop offset="1" stop-opacity="0"/>
</linearGradient>
<linearGradient id="paint12_linear" x1="18904.2" y1="32830.9" x2="18837.6" y2="15575.3" gradientUnits="userSpaceOnUse">
<stop offset="0.01"/>
<stop offset="0.83" stop-opacity="0.07"/>
<stop offset="1" stop-opacity="0"/>
</linearGradient>
</defs>
</svg>
