<svg width="719" height="542" viewBox="0 0 719 542" fill="none" xmlns="http://www.w3.org/2000/svg">
<g filter="url(#filter0_d)">
<path d="M352.741 520.177L42.6727 336.89C32.8044 331.352 24.3382 322.238 33.9548 316.287L345.12 136.901C349.794 134.007 356.876 132.119 361.621 134.87L687.148 323.802C697.017 329.537 698.796 345.555 688.946 351.29L393.653 519.889C387.448 523.493 380.41 525.415 373.235 525.465C366.06 525.516 358.996 523.693 352.741 520.177Z" fill="#FF9494"/>
<path d="M604.715 343.596C587.621 353.753 570.203 363.372 553.288 373.781L583.63 391.13C592.726 384.909 626.195 367.488 634.913 360.747L604.715 343.596Z" fill="url(#paint0_linear)"/>
<path d="M490.717 436.902L264.089 308.269L145.076 370.832L377.727 503.87C397.787 490.135 471.52 451.788 490.717 436.902Z" fill="url(#paint1_linear)"/>
<path d="M388.494 330.903C388.494 330.903 387.631 336.296 379.92 341.151C372.208 346.005 356.786 349.672 356.786 355.767C356.786 361.861 361.244 365.097 366.924 365.097C372.604 365.097 391.28 354.544 398.578 353.322C403.927 352.189 409.11 350.377 414 347.928C414 347.928 415.223 328.494 411.16 320.781C407.098 313.069 388.494 330.903 388.494 330.903Z" fill="#383838"/>
<path d="M429.854 362.688C429.854 362.688 413.677 388.667 411.592 393.125C409.794 397.08 406.199 404.937 408.338 408.55C412.652 415.742 429.315 410.348 433.503 405.296C439.183 398.393 441.628 384.19 443.641 382.572C445.641 380.788 447.537 378.891 449.321 376.891L452.323 355.857" fill="#383838"/>
<path d="M377.745 232.599L388.53 330.903C388.53 330.903 402.155 338.795 417.29 328.027V266.326L426.619 364.63C426.619 364.63 435.229 377.538 451.784 368.927L458.237 245.507L377.888 216.742" fill="#BE713D"/>
<path d="M257.33 183.465H253.412C249.272 183.465 245.916 186.821 245.916 190.961V318.336C245.916 322.477 249.272 325.833 253.412 325.833H257.33C261.47 325.833 264.826 322.477 264.826 318.336V190.961C264.826 186.821 261.47 183.465 257.33 183.465Z" fill="#CC4F00"/>
<path d="M410.711 358.014C410.711 352.791 406.478 348.558 401.256 348.558C396.034 348.558 391.801 352.791 391.801 358.014V481.236C391.801 486.459 396.034 490.692 401.256 490.692C406.478 490.692 410.711 486.459 410.711 481.236V358.014Z" fill="#CC4F00"/>
<path d="M490.699 296.026C490.699 290.803 486.466 286.569 481.245 286.569C476.023 286.569 471.79 290.803 471.79 296.026V436.902C471.79 442.125 476.023 446.358 481.245 446.358C486.466 446.358 490.699 442.125 490.699 436.902V296.026Z" fill="#CC4F00"/>
<path d="M184.783 217.587H180.864C176.725 217.587 173.369 220.944 173.369 225.084V352.459C173.369 356.599 176.725 359.956 180.864 359.956H184.783C188.923 359.956 192.279 356.599 192.279 352.459V225.084C192.279 220.944 188.923 217.587 184.783 217.587Z" fill="#CC4F00"/>
<path d="M167.689 212.985V232.185L394.749 360.135L500.316 299.711V281.23" fill="#68E1FD"/>
<path d="M167.689 212.985L274.298 148.299L500.316 281.23L394.749 343.074L167.689 212.985Z" fill="#F7E26B"/>
<path d="M203.657 183.806L205.796 211.043C205.948 213.124 206.589 215.14 207.667 216.927C208.744 218.713 210.228 220.221 211.997 221.327C221.706 227.216 232.912 230.169 244.262 229.83C258.427 229.489 266.929 225.102 271.494 221.578C274.253 219.428 276.049 216.274 276.491 212.805L280.41 183.806" fill="#68E1FD"/>
<path d="M210.631 192.31C207.485 192.903 201.086 193.407 199.091 190.099C198.413 188.365 198.413 186.439 199.091 184.705C199.972 182.17 202.111 182.188 204.484 182.53C207.342 182.943 208.564 178.575 205.688 178.161C202.452 177.694 198.983 177.46 196.575 180.103C195.575 181.407 194.859 182.906 194.475 184.504C194.091 186.102 194.047 187.763 194.346 189.379C195.55 197.362 205.778 197.811 211.961 196.571C214.711 196.139 213.489 191.771 210.631 192.31Z" fill="#68E1FD"/>
<path d="M289.02 178.808C287.636 170.988 279.17 170.017 272.717 171.132C269.841 171.617 271.063 175.986 273.921 175.5C277.516 174.889 282.783 174.655 284.365 178.79C284.958 180.318 285.155 182.062 283.753 182.853C281.92 183.728 279.861 184.017 277.858 183.68C275 183.285 273.777 187.654 276.653 188.049C280.13 188.682 283.719 188.091 286.809 186.377C289.505 184.705 289.523 181.613 289.02 178.808Z" fill="#68E1FD"/>
<path d="M242.015 205.416C263.2 205.416 280.374 195.741 280.374 183.806C280.374 171.872 263.2 162.197 242.015 162.197C220.83 162.197 203.657 171.872 203.657 183.806C203.657 195.741 220.83 205.416 242.015 205.416Z" fill="#F5E3D7"/>
<path d="M242.015 198.548C259.011 198.548 272.789 191.948 272.789 183.806C272.789 175.664 259.011 169.064 242.015 169.064C225.02 169.064 211.242 175.664 211.242 183.806C211.242 191.948 225.02 198.548 242.015 198.548Z" fill="#FFB70C"/>
<path d="M434.132 290.291C449.103 290.291 461.238 278.153 461.238 263.18C461.238 248.207 449.103 236.069 434.132 236.069C419.162 236.069 407.026 248.207 407.026 263.18C407.026 278.153 419.162 290.291 434.132 290.291Z" fill="#CFE872"/>
<path d="M407.421 261.705C416.211 261.993 424.39 265.607 426.637 274.793C427.805 279.612 427.733 285.347 428.848 289.751C430.576 290.094 432.334 290.269 434.096 290.273C434.564 290.273 435.013 290.273 435.462 290.273C433.957 288.411 432.778 286.308 431.975 284.052C429.621 277.706 429.369 270.371 425.756 264.528C421.172 257.139 414.216 256.114 407.493 258.11C407.272 259.298 407.128 260.499 407.062 261.705H407.421Z" fill="#EBFF99"/>
<path d="M420.867 279.989C420.238 271.791 415.474 268.375 407.439 268.123C408.184 272.151 409.83 275.958 412.255 279.258C414.68 282.559 417.821 285.267 421.442 287.18C421.154 284.753 421.046 282.344 420.867 279.989Z" fill="#EBFF99"/>
<path d="M443.299 251.008C448.476 254.047 453.222 256.905 457.032 261.705C458.541 263.593 459.803 265.665 460.789 267.872C461.549 263.696 461.312 259.4 460.099 255.333C458.885 251.266 456.729 247.543 453.805 244.466C450.882 241.39 447.274 239.047 443.274 237.629C439.275 236.21 434.997 235.755 430.789 236.302C425.253 240.581 439.615 248.833 443.299 251.008Z" fill="#EBFF99"/>
<path d="M454.768 269.562C453.147 266.543 450.934 263.883 448.261 261.741C451.624 268.263 453.141 275.58 452.646 282.901C453.806 281.833 454.871 280.666 455.828 279.414C456.611 276.105 456.237 272.628 454.768 269.562Z" fill="#EBFF99"/>
<path d="M445.51 287C448.656 275.009 443.102 261.508 433.97 253.453C428.367 248.825 421.66 245.728 414.504 244.464C412.671 246.369 411.127 248.531 409.92 250.882C412.589 250.448 415.318 250.554 417.945 251.193C420.573 251.833 423.045 252.992 425.217 254.604C430.357 258.397 433 264.096 434.707 270.047C436.271 275.441 437.044 286.947 443.695 288.475C444.27 288.259 444.791 287.971 445.331 287.702C445.367 287.462 445.427 287.228 445.51 287Z" fill="#EBFF99"/>
<path d="M420.309 307.549C429.84 307.549 437.565 299.822 437.565 290.291C437.565 280.759 429.84 273.032 420.309 273.032C410.779 273.032 403.053 280.759 403.053 290.291C403.053 299.822 410.779 307.549 420.309 307.549Z" fill="#FF1710"/>
<path d="M411.34 275.566C407.565 277.833 404.801 281.458 403.613 285.698C402.426 289.939 402.906 294.473 404.954 298.37C407.003 302.268 410.465 305.234 414.63 306.66C418.796 308.086 423.349 307.864 427.356 306.039C416.301 299.028 408.122 287.288 411.34 275.566Z" fill="#B71D1D"/>
<path d="M412.005 310.372C412.005 310.372 414 317.294 410.207 319.361C406.415 321.429 364.102 294.372 366.888 290.776C369.674 287.18 405.516 304.835 412.005 310.372Z" fill="#FF780B"/>
<path d="M386.714 309.905C386.714 309.905 388.709 316.826 384.917 318.894C381.124 320.961 338.829 293.886 341.525 290.29C344.221 286.695 380.225 304.349 386.714 309.905Z" fill="#FF780B"/>
<path d="M406.558 295.288C406.558 295.288 408.554 302.21 404.761 304.277C400.968 306.345 358.691 279.27 361.459 275.656C364.227 272.043 400.07 289.751 406.558 295.288Z" fill="#FF780B"/>
<path d="M340.878 265.75L358.745 255.287C362.596 253.024 365.789 249.794 368.007 245.917C370.226 242.04 371.393 237.65 371.393 233.183C371.393 228.716 370.226 224.326 368.007 220.449C365.789 216.572 362.596 213.342 358.745 211.079L342.154 201.317C338.357 199.075 334.046 197.851 329.638 197.763C325.229 197.675 320.873 198.726 316.989 200.813L297.558 211.223C293.479 213.416 290.07 216.674 287.694 220.65C285.318 224.626 284.063 229.171 284.063 233.803C284.063 238.435 285.318 242.981 287.694 246.957C290.07 250.933 293.479 254.19 297.558 256.384L315.731 266.2C319.608 268.293 323.958 269.351 328.363 269.272C332.768 269.193 337.078 267.98 340.878 265.75Z" fill="#F7F7F7"/>
<path d="M349.362 162.916C348.481 163.617 347.565 164.336 346.774 165.073C347.421 164.138 348.104 163.275 348.733 162.25C349.542 161.01 347.547 159.859 346.756 161.1L346.27 161.819H346.127C346.097 161.655 346.034 161.499 345.942 161.36C345.85 161.221 345.73 161.102 345.59 161.011C345.45 160.92 345.294 160.859 345.129 160.831C344.965 160.803 344.797 160.809 344.635 160.848C344.85 160.489 345.084 160.129 345.282 159.769C345.398 159.589 345.461 159.379 345.466 159.165C345.471 158.95 345.417 158.738 345.309 158.552C345.201 158.367 345.044 158.214 344.856 158.112C344.667 158.009 344.454 157.961 344.239 157.972C344.76 157.181 345.3 156.39 345.785 155.581C346.486 154.43 344.922 153.333 343.988 154.196C343.053 155.059 341.92 156.174 340.932 157.181L341.04 156.983C341.132 156.808 341.178 156.613 341.174 156.415C341.169 156.217 341.113 156.024 341.012 155.855C340.911 155.685 340.767 155.544 340.596 155.445C340.425 155.347 340.231 155.295 340.033 155.293H339.727C339.611 155.317 339.5 155.366 339.404 155.437H339.296C339.237 155.479 339.183 155.527 339.134 155.581C339.045 155.392 338.907 155.231 338.736 155.113C338.564 154.995 338.364 154.924 338.156 154.908C337.949 154.891 337.74 154.93 337.552 155.02C337.364 155.109 337.203 155.247 337.085 155.419L329.715 167.123C327.361 170.862 324.97 176.417 321.717 179.455C319.506 181.523 310.32 183.177 311.651 188.157C311.701 188.351 311.803 188.529 311.945 188.671C312.087 188.813 312.265 188.915 312.459 188.966L313.107 189.092C312.529 189.701 312.109 190.442 311.88 191.25C311.652 192.057 311.622 192.908 311.794 193.73C311.832 193.888 311.901 194.036 311.997 194.167C312.092 194.298 312.213 194.408 312.352 194.492C312.491 194.576 312.645 194.631 312.805 194.654C312.966 194.678 313.129 194.669 313.286 194.629C312.988 195.9 312.885 197.21 312.981 198.512C312.972 198.991 313.121 199.459 313.403 199.845C313.685 200.231 314.086 200.514 314.545 200.652C314.988 200.745 315.45 200.668 315.839 200.436C316.036 203.51 317.295 206.117 321.069 206.009C321.232 206.004 321.391 205.964 321.537 205.892C321.682 205.819 321.81 205.717 321.913 205.59C322.015 205.464 322.089 205.318 322.129 205.16C322.17 205.003 322.176 204.839 322.148 204.679C322.356 204.492 322.49 204.237 322.525 203.96C322.723 202.288 322.256 200.544 322.525 198.908C323.172 195.312 327.109 195.312 329.895 196.714C330.578 197.056 331.693 196.714 331.693 195.726L331.315 192.597C331.473 192.465 331.592 192.29 331.657 192.094C335.241 181.135 342.013 171.496 351.106 164.408C352.148 163.635 350.512 162.017 349.362 162.916Z" fill="#FFC197"/>
<path d="M379.938 135.931C379.938 135.931 353.478 165.433 351.052 167.86C351.052 167.86 334.335 158.871 331.89 160.291C331.89 160.291 373.862 98.3203 385.708 94.455C397.553 90.5897 390.273 132.874 379.938 135.931Z" fill="#F7F7F7"/>
<path d="M383.065 145.675C383.065 145.675 380.495 120.218 380.495 118.707C380.495 117.197 383.856 94.437 388.386 94.437C392.916 94.437 406.631 86.275 426.96 97.6911C447.29 109.107 450.795 118.186 451.874 125.018C452.952 131.849 456.925 174.134 456.925 185.82C456.925 197.506 423.599 199.897 423.599 199.897" fill="#F7F7F7"/>
<path d="M392.898 94.455C392.898 94.455 389.303 108.586 389.303 118.564C389.33 124.856 389.931 131.132 391.1 137.315L410.459 144.129C410.459 144.129 408.518 99.5608 430.915 94.455L436.307 99.0754C436.307 99.0754 422.43 99.8125 418.782 115.633C416.593 125.547 416.131 135.765 417.415 145.836L439.956 156.803L456.924 172.12V247.844L443.533 250.271L391.675 220.068C391.675 220.068 392.646 183.537 391.675 180.139C390.705 176.741 382.58 146.142 383.065 145.639C384.053 142.887 384.893 140.084 385.582 137.243C385.582 137.243 383.047 102.869 388.386 94.4191L392.898 94.455Z" fill="#68E1FD"/>
<path d="M401.274 201.155C399.602 202.252 397.877 203.312 396.169 204.373C396.582 203.942 397.05 203.564 397.427 203.097C397.561 202.938 397.648 202.745 397.679 202.539C398.44 201.661 399.136 200.73 399.764 199.753C399.902 199.547 399.96 199.297 399.926 199.052L400.753 198.368C400.897 198.246 401.004 198.086 401.065 197.907C401.125 197.728 401.135 197.536 401.095 197.351C401.054 197.166 400.964 196.996 400.834 196.859C400.704 196.721 400.539 196.622 400.357 196.571C400.306 196.423 400.221 196.29 400.109 196.182C399.997 196.074 399.861 195.994 399.712 195.948C399.563 195.903 399.406 195.893 399.252 195.92C399.099 195.947 398.954 196.01 398.829 196.103C397.913 196.732 397.032 197.398 396.115 198.045C395.553 198.185 395.005 198.377 394.479 198.62C395.576 197.452 396.69 196.301 397.769 195.025C397.882 194.913 397.968 194.778 398.023 194.629C398.078 194.481 398.099 194.322 398.085 194.164C398.071 194.006 398.023 193.853 397.944 193.716C397.864 193.579 397.755 193.461 397.625 193.371C398.721 192.382 397.104 190.764 396.007 191.753L394.749 192.921C394.7 192.863 394.646 192.809 394.587 192.759L395.45 191.896C396.331 190.764 394.893 189.182 393.832 190.278L393.293 190.854C393.276 190.639 393.198 190.433 393.069 190.26C392.939 190.088 392.763 189.956 392.561 189.881C392.359 189.805 392.139 189.789 391.928 189.834C391.717 189.879 391.523 189.983 391.37 190.135C387.02 194.689 382.616 199.195 378.158 203.654C375.957 206.09 373.552 208.334 370.968 210.36C368.02 212.409 365.324 212.463 361.981 213.003C353.658 214.297 352.022 221.704 354.521 229.003C354.609 229.294 354.805 229.541 355.069 229.691C355.334 229.842 355.646 229.885 355.941 229.812L357.325 229.525C357.46 229.495 357.588 229.44 357.703 229.363C358.404 231.772 359.931 233.192 363.185 231.358C363.25 231.317 363.31 231.269 363.365 231.214C364.677 233.012 366.6 233.012 368.559 232.024C368.674 231.965 368.778 231.885 368.865 231.79C369.072 232.064 369.346 232.279 369.661 232.414C369.977 232.55 370.322 232.601 370.663 232.563C371.957 232.437 372.604 231.143 372.766 229.992C372.805 228.725 372.629 227.46 372.244 226.253C374.302 225.409 376.251 224.323 378.05 223.016C380.585 221.021 381.645 218.36 383.784 216.041C388.691 210.648 396.564 207.052 402.64 203.115C403.665 202.324 402.514 200.328 401.274 201.155Z" fill="#FFC197"/>
<path d="M421.298 120.415C421.298 120.415 415.222 150.834 412.167 158.169C409.111 165.504 385.708 191.627 385.708 191.627C385.708 191.627 397.733 209.263 399.62 207.807C412.593 195.031 424.229 180.965 434.348 165.828C450.166 142.457 454.426 128.074 450.525 120.505C446.625 112.937 426.007 107.957 421.298 120.415Z" fill="#F7F7F7"/>
<path d="M400.932 100.711C400.932 100.711 403.683 108.802 404.33 109.7C404.33 109.7 413.731 110.348 417.433 95.6236L416.625 84.1356" fill="#EFAF84"/>
<path d="M422.125 65.4024C422.125 65.4024 425.342 69.7711 423.922 74.1577C422.502 78.5444 420.921 79.2276 420.921 79.2276C420.921 79.2276 422.718 87.9829 414.935 89.8167C407.152 91.6504 403.197 75.9915 406.415 73.6364C409.632 71.2812 422.125 65.4024 422.125 65.4024Z" fill="#6D3421"/>
<path d="M388.062 76.8365C386.265 76.1354 390.597 103.318 395.432 104.936C400.267 106.554 412.005 97.745 413.407 95.7315C414.358 93.8707 414.909 91.8314 415.025 89.7448C415.025 89.7448 419.86 83.0749 415.941 82.1401C415.425 82.0171 414.889 82.0049 414.368 82.1042C413.847 82.2034 413.353 82.4119 412.918 82.7159C412.484 83.0199 412.118 83.4125 411.846 83.868C411.574 84.3234 411.402 84.8312 411.34 85.3581L409.722 87.4256L408.032 76.8365C408.032 76.8365 394.497 79.4433 388.062 76.8365Z" fill="#FFC197"/>
<path d="M386.696 76.8365V78.3467C386.695 78.8376 386.88 79.3109 387.213 79.6712C387.547 80.0314 388.004 80.2519 388.494 80.2883C393.886 80.8456 411.178 81.4748 424.444 69.2318V63.8383L399.279 70.4363" fill="#757881"/>
<path d="M379.991 62.8675C379.991 62.8675 376.073 74.6072 388.044 76.9084C391.3 77.6669 394.71 77.3983 397.806 76.1396C400.903 74.8808 403.533 72.6938 405.336 69.879C405.336 69.879 409.92 74.0499 419.59 70.0588C429.261 66.0676 425.576 55.0291 422.125 52.9436C422.125 52.9436 423.509 43.5051 411.987 42.8039C400.465 42.1028 395.45 47.4423 395.45 47.4423C395.45 47.4423 371.939 48.8266 379.991 62.8675Z" fill="#68E1FD"/>
<path d="M580.592 250.217C583.792 250.026 586.988 250.644 589.886 252.015C592.845 253.694 595.15 256.323 596.428 259.476C597.849 262.478 598.496 266.757 601.461 268.699C602.624 269.317 603.632 270.189 604.409 271.252C605.144 272.281 605.612 273.477 605.772 274.732C605.932 275.987 605.779 277.262 605.326 278.443C604.014 281.086 598.514 282.704 595.997 282.218" fill="#8FDB5E"/>
<path d="M578.076 250.559C574.356 250.897 570.834 252.386 567.999 254.819C565.164 257.251 563.158 260.507 562.258 264.132C561.324 267.796 561.281 271.631 562.132 275.315C562.851 278.281 564.595 283.423 568.226 283.639C573.115 283.944 574.697 279.36 576.242 275.602C577.788 271.845 579.406 267.71 583.325 266.218C585.25 265.495 587.345 265.351 589.351 265.805C591.357 266.258 593.186 267.289 594.613 268.771L578.076 250.559Z" fill="#1E8C0E"/>
<path d="M600.365 270.425C597.417 266.595 594.972 262.424 592.096 258.523C590.488 255.975 588.561 253.643 586.362 251.584C579.55 248.276 570.994 251.314 565.979 257.103C566.68 257.319 567.633 257.355 568.154 257.552C571.168 258.715 573.843 260.612 575.937 263.072C578.939 266.398 581.329 270.479 583.954 274.02C588.286 279.773 594.02 284.502 601.425 281.068C606.243 278.856 602.54 273.139 600.365 270.425Z" fill="#8FDB5E"/>
<path d="M624.451 221.219C624.451 221.219 639.784 220.014 639.496 244.249C639.209 268.483 616.309 252.555 621.342 237.938" fill="#1E8C0E"/>
<path d="M622.241 245.076C622.079 237.705 630.365 232.311 637.357 231.358C636.597 228.263 634.816 225.515 632.301 223.558C629.786 221.6 626.685 220.548 623.499 220.571C613.001 220.841 605.146 231.502 603.367 244.069C601.587 256.636 611.15 264.564 611.15 264.564L616.219 268.879C625.53 265.229 621.935 251.799 622.241 245.076Z" fill="#8FDB5E"/>
<path d="M663.979 262.424C663.742 257.824 662.516 253.329 660.384 249.246C659.41 247.29 658.007 245.578 656.28 244.239C654.553 242.901 652.545 241.97 650.407 241.516L641.779 258.128C641.779 258.128 654.631 235.637 649.383 252.95C644.134 270.263 661.462 289.697 663.763 263.863C663.925 263.395 663.961 262.91 663.979 262.424Z" fill="#1E8C0E"/>
<path d="M603.007 305.698C603.007 305.698 591.467 313.195 594.685 330.759C595.817 336.843 597.533 342.803 599.808 348.558C602.037 354.257 603.69 361.646 609.442 364.864C614.835 367.866 623.103 368.459 628.514 365.115C633.457 362.095 635.219 355.227 637.034 350.122C639.196 343.838 640.678 337.341 641.456 330.741C646.884 288.313 603.007 305.698 603.007 305.698Z" fill="#68E1FD"/>
<path d="M618.538 314.363C627.83 314.363 635.362 311.635 635.362 308.269C635.362 304.903 627.83 302.174 618.538 302.174C609.246 302.174 601.713 304.903 601.713 308.269C601.713 311.635 609.246 314.363 618.538 314.363Z" fill="#68E1FD"/>
<path d="M619.904 275.836C617.549 270.155 613.163 265.391 611.779 259.314C610.907 255.198 611.258 250.917 612.788 246.997C614.317 243.078 616.96 239.692 620.389 237.255C621.665 236.32 620.389 234.163 619.131 235.098C608.346 242.918 606.297 256.258 612.57 267.62C614.511 271.216 617.046 274.524 618.232 278.407C619.778 283.477 618.052 287.126 615.68 290.992C615.813 287.236 614.471 283.577 611.941 280.798C609.155 278.209 605.021 277.778 601.551 276.609C594.847 274.344 588.969 270.515 587.818 263.054C587.585 261.472 585.176 262.155 585.428 263.719C586.363 269.831 590.371 274.2 595.781 276.969C599.02 278.337 602.354 279.467 605.758 280.349C607.235 280.916 608.58 281.78 609.712 282.887C610.843 283.994 611.736 285.32 612.336 286.785C613.918 290.38 612.84 292.951 611.959 296.511C610.791 301.113 608.957 305.086 612.121 309.437C613.055 310.714 615.212 309.437 614.278 308.179C609.227 301.221 617.297 294.605 620.012 288.636C620.913 286.62 621.37 284.433 621.352 282.225C621.333 280.016 620.839 277.837 619.904 275.836Z" fill="#1E8C0E"/>
<path d="M650.929 260.591C640.305 258.793 633.062 266.955 633.691 277.238C633.91 279.82 634.386 282.374 635.111 284.861C635.596 286.659 636.908 289.697 636.513 291.477C636.164 293.081 635.428 294.575 634.369 295.828C633.31 297.082 631.96 298.057 630.437 298.668C625.818 300.844 622.852 303.468 621.45 308.52C621.362 308.837 621.403 309.177 621.565 309.463C621.726 309.75 621.995 309.96 622.312 310.048C622.629 310.137 622.969 310.095 623.255 309.933C623.542 309.772 623.752 309.503 623.84 309.185C626.303 300.196 638.885 301.473 638.975 291.567C638.975 286.731 636.441 282.182 636.153 277.328C635.632 268.861 641.168 261.472 650.246 263.072C651.827 263.269 652.493 260.878 650.929 260.591Z" fill="#1E8C0E"/>
<path d="M660.437 249.246C656.321 241.642 648.826 239.862 641.492 242.055C640.478 242.467 639.493 242.948 638.544 243.494C620.083 257.175 633.151 288.061 636.027 287.828C645.428 287.054 644.458 281.517 647.603 266.038C648.142 262.544 649.928 259.364 652.632 257.086C655.335 254.808 658.773 253.588 662.307 253.651C661.813 252.131 661.188 250.657 660.437 249.246Z" fill="#8FDB5E"/>
<path d="M656.393 244.213C653.315 243.731 650.164 244.195 647.356 245.543C644.547 246.891 642.214 249.06 640.665 251.763C633.924 263.054 635.47 276.214 636.369 288.655C636.477 290.237 638.975 290.255 638.849 288.655C638.202 279.665 636.926 270.676 639.371 261.903C640.575 257.57 642.013 252.734 645.482 249.642C647.35 247.987 649.661 246.917 652.131 246.562C654.6 246.207 657.119 246.584 659.377 247.646L658.442 246.37C657.741 245.669 657.058 244.95 656.393 244.213Z" fill="#1E8C0E"/>
<path d="M231.051 122.932C228.157 121.368 224.076 120.487 222.279 117.539C219.69 113.152 225.496 110.348 228.714 109.071C231.176 108.1 230.098 104.055 227.599 105.044C224.004 106.446 220.409 108.118 218.486 111.66C217.685 113.204 217.392 114.961 217.647 116.681C217.901 118.401 218.692 119.997 219.906 121.242C222.818 124.46 227.096 125.072 230.511 127.535C232.201 128.775 233.891 130.861 232.848 133.018C231.806 135.175 229.253 135.841 227.15 136.362C220.23 138.07 211.224 140.856 211.26 149.666C211.318 151.38 211.83 153.049 212.742 154.502C213.655 155.954 214.936 157.139 216.455 157.936C220.32 160.111 224.831 159.895 229.037 159.536C231.698 159.302 231.716 155.131 229.037 155.365C225.209 155.688 220.715 156.21 217.498 153.657C214.28 151.104 215.053 147.383 217.498 144.812C222.351 139.76 230.835 141.917 235.473 136.524C239.733 131.454 235.886 125.539 231.051 122.932Z" fill="#FFB70C"/>
<path d="M259.901 129.099C257.959 128.056 255.227 127.463 254.023 125.503C252.225 122.573 256.18 120.685 258.319 119.822C259.972 119.175 259.253 116.46 257.582 117.125C255.076 117.82 252.906 119.397 251.47 121.566C250.934 122.6 250.737 123.777 250.908 124.929C251.079 126.082 251.609 127.151 252.423 127.984C254.364 130.142 257.258 130.555 259.613 132.191C260.745 133.018 261.878 134.42 261.177 135.787C260.725 136.412 260.141 136.931 259.468 137.307C258.794 137.683 258.046 137.906 257.276 137.962C252.639 139.113 246.617 140.964 246.635 146.951C246.676 148.1 247.02 149.217 247.632 150.19C248.245 151.163 249.104 151.956 250.122 152.488C252.772 153.69 255.724 154.06 258.588 153.549C260.386 153.405 260.386 150.601 258.588 150.762C256.018 150.978 253.016 151.32 250.859 149.612C250.428 149.249 250.082 148.796 249.844 148.285C249.606 147.775 249.483 147.218 249.483 146.654C249.483 146.091 249.606 145.534 249.844 145.023C250.082 144.513 250.428 144.06 250.859 143.697C254.113 140.317 259.847 141.755 262.866 138.142C265.706 134.816 263.136 130.771 259.901 129.099Z" fill="#FFB70C"/>
<path d="M331.351 210C330.874 210 330.417 210.19 330.08 210.527C329.743 210.864 329.554 211.321 329.554 211.798C329.554 212.275 329.743 212.732 330.08 213.069C330.417 213.406 330.874 213.596 331.351 213.596C331.828 213.596 332.285 213.406 332.622 213.069C332.959 212.732 333.149 212.275 333.149 211.798C333.149 211.321 332.959 210.864 332.622 210.527C332.285 210.19 331.828 210 331.351 210Z" fill="#FFB70C"/>
<path d="M308.433 219.96C307.956 219.96 307.499 220.15 307.162 220.487C306.825 220.824 306.635 221.281 306.635 221.758C306.635 222.235 306.825 222.692 307.162 223.029C307.499 223.366 307.956 223.556 308.433 223.556C308.91 223.556 309.367 223.366 309.704 223.029C310.041 222.692 310.23 222.235 310.23 221.758C310.23 221.281 310.041 220.824 309.704 220.487C309.367 220.15 308.91 219.96 308.433 219.96Z" fill="#FFB70C"/>
<path d="M345.3 243.889C344.823 243.889 344.366 244.078 344.029 244.416C343.692 244.753 343.502 245.21 343.502 245.687C343.502 246.164 343.692 246.621 344.029 246.958C344.366 247.295 344.823 247.485 345.3 247.485C345.777 247.485 346.234 247.295 346.571 246.958C346.908 246.621 347.097 246.164 347.097 245.687C347.097 245.21 346.908 244.753 346.571 244.416C346.234 244.078 345.777 243.889 345.3 243.889Z" fill="#FFB70C"/>
<path d="M331.854 226.936C331.378 226.936 330.92 227.125 330.583 227.462C330.246 227.799 330.057 228.257 330.057 228.733C330.057 229.21 330.246 229.668 330.583 230.005C330.92 230.342 331.378 230.531 331.854 230.531C332.331 230.531 332.788 230.342 333.125 230.005C333.463 229.668 333.652 229.21 333.652 228.733C333.652 228.257 333.463 227.799 333.125 227.462C332.788 227.125 332.331 226.936 331.854 226.936Z" fill="#FFB70C"/>
<path d="M312.406 244.878C311.929 244.878 311.472 245.067 311.135 245.404C310.797 245.742 310.608 246.199 310.608 246.676C310.608 247.152 310.797 247.61 311.135 247.947C311.472 248.284 311.929 248.473 312.406 248.473C312.882 248.473 313.339 248.284 313.677 247.947C314.014 247.61 314.203 247.152 314.203 246.676C314.203 246.199 314.014 245.742 313.677 245.404C313.339 245.067 312.882 244.878 312.406 244.878Z" fill="#FFB70C"/>
<path d="M299.949 236.41C299.472 236.41 299.015 236.6 298.678 236.937C298.341 237.274 298.151 237.731 298.151 238.208C298.151 238.685 298.341 239.142 298.678 239.479C299.015 239.816 299.472 240.006 299.949 240.006C300.426 240.006 300.883 239.816 301.22 239.479C301.557 239.142 301.746 238.685 301.746 238.208C301.746 237.731 301.557 237.274 301.22 236.937C300.883 236.6 300.426 236.41 299.949 236.41Z" fill="#FFB70C"/>
<path d="M332.34 255.844C331.863 255.844 331.406 256.034 331.069 256.371C330.732 256.708 330.542 257.165 330.542 257.642C330.542 258.119 330.732 258.576 331.069 258.914C331.406 259.251 331.863 259.44 332.34 259.44C332.816 259.44 333.274 259.251 333.611 258.914C333.948 258.576 334.137 258.119 334.137 257.642C334.137 257.165 333.948 256.708 333.611 256.371C333.274 256.034 332.816 255.844 332.34 255.844Z" fill="#FFB70C"/>
<path d="M353.766 235.907C353.289 235.907 352.832 236.096 352.495 236.433C352.158 236.77 351.969 237.228 351.969 237.705C351.969 238.181 352.158 238.639 352.495 238.976C352.832 239.313 353.289 239.502 353.766 239.502C354.243 239.502 354.7 239.313 355.037 238.976C355.374 238.639 355.564 238.181 355.564 237.705C355.564 237.228 355.374 236.77 355.037 236.433C354.7 236.096 354.243 235.907 353.766 235.907Z" fill="#FFB70C"/>
<path d="M331.351 238.909C330.874 238.909 330.417 239.099 330.08 239.436C329.743 239.773 329.554 240.23 329.554 240.707C329.554 241.184 329.743 241.641 330.08 241.978C330.417 242.315 330.874 242.505 331.351 242.505C331.828 242.505 332.285 242.315 332.622 241.978C332.959 241.641 333.149 241.184 333.149 240.707C333.149 240.23 332.959 239.773 332.622 239.436C332.285 239.099 331.828 238.909 331.351 238.909Z" fill="#FFB70C"/>
<path d="M348.284 216.472C347.807 216.472 347.35 216.662 347.013 216.999C346.675 217.336 346.486 217.793 346.486 218.27C346.486 218.747 346.675 219.204 347.013 219.541C347.35 219.879 347.807 220.068 348.284 220.068C348.76 220.068 349.218 219.879 349.555 219.541C349.892 219.204 350.081 218.747 350.081 218.27C350.081 217.793 349.892 217.336 349.555 216.999C349.218 216.662 348.76 216.472 348.284 216.472Z" fill="#FFB70C"/>
</g>
<defs>
<filter id="filter0_d" x="-4" y="0" width="727" height="555" filterUnits="userSpaceOnUse" color-interpolation-filters="sRGB">
<feFlood flood-opacity="0" result="BackgroundImageFix"/>
<feColorMatrix in="SourceAlpha" type="matrix" values="0 0 0 0 0 0 0 0 0 0 0 0 0 0 0 0 0 0 127 0" result="hardAlpha"/>
<feOffset dy="9"/>
<feGaussianBlur stdDeviation="2"/>
<feColorMatrix type="matrix" values="0 0 0 0 0 0 0 0 0 0 0 0 0 0 0 0 0 0 0.25 0"/>
<feBlend mode="normal" in2="BackgroundImageFix" result="effect1_dropShadow"/>
<feBlend mode="normal" in="SourceGraphic" in2="effect1_dropShadow" result="shape"/>
</filter>
<linearGradient id="paint0_linear" x1="582.156" y1="385.305" x2="604.792" y2="351.15" gradientUnits="userSpaceOnUse">
<stop offset="0.02" stop-color="#FF8D73" stop-opacity="0"/>
<stop offset="1" stop-color="#FF836A"/>
</linearGradient>
<linearGradient id="paint1_linear" x1="56875.2" y1="47859.1" x2="60749.1" y2="37526.8" gradientUnits="userSpaceOnUse">
<stop offset="0.02" stop-color="#FF8D73" stop-opacity="0"/>
<stop offset="1" stop-color="#FF836A"/>
</linearGradient>
</defs>
</svg>
