<svg width="66" height="66" viewBox="0 0 66 66" fill="none" xmlns="http://www.w3.org/2000/svg">
<g clip-path="url(#clip0)">
<path d="M52.5671 20.078V24.1015H13.4012V20.078H52.5671ZM13.4012 45.9378V41.8985H45.9378C46.355 41.8952 46.7671 41.8063 47.1485 41.6374C47.53 41.4685 47.8727 41.2231 48.1555 40.9164C48.4438 40.6044 48.672 40.2419 48.8288 39.8471C49.0044 39.4204 49.0907 38.9621 49.0822 38.5007C49.087 38.0447 49.0009 37.5923 48.8288 37.17C48.6705 36.7641 48.4427 36.3889 48.1555 36.0612C47.8776 35.7315 47.5353 35.462 47.1496 35.2692C46.7693 35.098 46.3547 35.0167 45.9378 35.0316H13.4012V31.008H45.9378C46.825 31.0046 47.7018 31.1995 48.504 31.5783C49.3092 31.9611 50.0306 32.4995 50.6267 33.1624C51.2535 33.8573 51.7451 34.6631 52.0761 35.5385C52.4352 36.4871 52.6151 37.4942 52.6067 38.5086C52.6173 39.518 52.4372 40.5202 52.0761 41.4629C51.7449 42.3381 51.2534 43.1439 50.6267 43.839C50.0306 44.5018 49.3092 45.0402 48.504 45.423C47.6974 45.7828 46.8208 45.9586 45.9378 45.9378H13.4012Z" fill="#040404"/>
<path d="M32.996 64.4951C50.3925 64.4951 64.4951 50.3925 64.4951 32.996C64.4951 15.5996 50.3925 1.49695 32.996 1.49695C15.5996 1.49695 1.49694 15.5996 1.49694 32.996C1.49694 50.3925 15.5996 64.4951 32.996 64.4951Z" stroke="#040404" stroke-width="3.79" stroke-miterlimit="10"/>
</g>
<defs>
<clipPath id="clip0">
<rect width="66" height="66" fill="white"/>
</clipPath>
</defs>
</svg>
