<svg width="46" height="46" viewBox="0 0 46 46" fill="none" xmlns="http://www.w3.org/2000/svg">
<path d="M39.4067 35.3435L30.4559 26.3927C32.2399 23.6068 32.9317 20.26 32.3986 16.9951C31.8654 13.7303 30.1449 10.7774 27.5673 8.7038C24.9898 6.63014 21.737 5.58185 18.4337 5.76026C15.1304 5.93867 12.0095 7.33119 9.67026 9.67039C7.33107 12.0096 5.93855 15.1305 5.76014 18.4338C5.58173 21.7372 6.63002 24.9899 8.70367 27.5675C10.7773 30.145 13.7301 31.8655 16.995 32.3987C20.2599 32.9318 23.6067 32.24 26.3925 30.456L35.3434 39.4068C35.8824 39.9452 36.6132 40.2476 37.375 40.2476C38.1369 40.2476 38.8676 39.9452 39.4067 39.4068C39.6756 39.1412 39.8891 38.8248 40.0348 38.4761C40.1805 38.1273 40.2555 37.7531 40.2555 37.3752C40.2555 36.9972 40.1805 36.623 40.0348 36.2742C39.8891 35.9255 39.6756 35.6091 39.4067 35.3435ZM9.58337 19.1668C9.58337 17.2714 10.1454 15.4186 11.1984 13.8426C12.2515 12.2666 13.7482 11.0383 15.4993 10.313C17.2504 9.58764 19.1773 9.39786 21.0363 9.76763C22.8953 10.1374 24.6029 11.0501 25.9431 12.3904C27.2834 13.7306 28.1961 15.4382 28.5659 17.2972C28.9357 19.1562 28.7459 21.0831 28.0205 22.8342C27.2952 24.5853 26.0669 26.082 24.4909 27.1351C22.9149 28.1881 21.0621 28.7502 19.1667 28.7502C16.625 28.7502 14.1875 27.7405 12.3903 25.9433C10.593 24.146 9.58337 21.7085 9.58337 19.1668Z" fill="#464646"/>
</svg>
